<svg width="250" height="418" viewBox="0 0 250 418" fill="none" xmlns="http://www.w3.org/2000/svg">
<path d="M169.052 56.9123L168.719 57.0676L168.768 57.4315L185.765 184.91L185.799 185.165L186.025 185.285L249.473 219.124L231.838 417.336L28.1163 412.401L24.5837 0.5H128.187H200.633V42.1745L169.052 56.9123Z" fill="#454545" stroke="black"/>
<path d="M79.1119 0.5H200.633V41.9929H79.1119V0.5Z" fill="#1F2383" stroke="black"/>
<path d="M134.718 417.347L128.702 218.63H249.453L231.467 417.347H134.718Z" fill="#1E227A" stroke="black"/>
<path d="M157.224 257.79H222.38L212.711 376.771H160.458L157.224 257.79Z" fill="#080A36"/>
<path d="M59.9502 56.2231L59.6553 56.3916L59.7033 56.7279L78.1169 185.623L78.149 185.847L78.3386 185.971L129.112 219.115L135.12 417.347H22.4291L0.526961 0.5H32.3534H84.4858V42.2028L59.9502 56.2231Z" fill="#313594" stroke="black"/>
<path d="M77.6782 186.684L77.5924 185.344H186.138L249.5 218.433V219.047H128.333L77.6782 186.684Z" fill="#131554" stroke="black"/>
<path d="M59.4292 56.1613L84.4072 42.2847H198.972L169.149 56.8647L59.4292 56.1613Z" fill="#2A2A2A" stroke="black"/>
<path d="M76.0104 78.7458C75.5177 75.7049 77.8655 72.9462 80.9461 72.9462H154.1C156.604 72.9462 158.723 74.7993 159.055 77.2817L170.629 163.599C171.031 166.598 168.698 169.263 165.673 169.263H94.9304C92.4776 169.263 90.387 167.484 89.9948 165.063L76.0104 78.7458Z" fill="#716A60"/>
<path d="M78.8433 81.5786C78.3506 78.5377 80.6984 75.7789 83.7789 75.7789H152.026C154.531 75.7789 156.649 77.6321 156.982 80.1145L167.796 160.766C168.198 163.765 165.866 166.43 162.84 166.43H96.8454C94.3926 166.43 92.302 164.651 91.9097 162.23L78.8433 81.5786Z" fill="#140B0B"/>
<path d="M107.587 115.957L107.573 116.153L112.983 117.702L112.808 119.852L112.792 120.051L112.961 119.945L116.751 117.558L116.849 117.496L116.774 117.408L114.724 114.994L114.688 114.952L114.634 114.96L107.587 115.957Z" fill="#D91F1F" stroke="#FFE60B" stroke-width="0.2"/>
<path d="M111.173 130.596L111.071 130.429L115.153 126.554L114.003 124.729L113.896 124.559L114.096 124.576L118.56 124.94L118.675 124.949L118.649 125.062L117.948 128.15L117.936 128.204L117.884 128.223L111.173 130.596Z" fill="#D91F1F" stroke="#FFE60B" stroke-width="0.2"/>
<path d="M139.963 116.962L140.045 116.872L139.941 116.809C139.314 116.429 138.772 116.083 138.282 115.77L138.249 115.749C137.751 115.431 137.307 115.148 136.886 114.902C136.043 114.409 135.288 114.062 134.362 113.872C132.517 113.494 130.005 113.745 124.766 114.664C120.708 115.377 116.222 117.207 113.157 119.034C111.626 119.947 110.439 120.865 109.839 121.649C109.54 122.04 109.374 122.415 109.405 122.75C109.434 123.063 109.633 123.313 109.987 123.493C109.755 123.812 109.681 124.117 109.777 124.4C109.88 124.706 110.17 124.951 110.579 125.148C111.398 125.542 112.777 125.778 114.46 125.868C117.832 126.047 122.481 125.638 126.479 124.659C130.611 123.646 133.118 122.667 135.026 121.465C136.932 120.265 138.235 118.845 139.958 116.968L139.963 116.962Z" fill="#FFE70B" stroke="#D91F1F" stroke-width="0.2"/>
<path d="M113.728 123.202L113.629 123.225L113.653 123.323L113.822 124.011L113.845 124.106L113.94 124.085L126.75 121.311L126.75 121.311L126.755 121.31L138.709 118.016L138.73 118.01L138.747 117.996L139.954 116.971L139.865 116.797L138.49 117.135L135.738 117.809L135.736 117.809L126.505 120.302L113.728 123.202Z" fill="white" stroke="#D91F1F" stroke-width="0.2"/>
<path d="M109.352 125.758L108.377 121.779L112.699 119.43L114.296 125.946L109.352 125.758Z" fill="#D91F1F" stroke="#FFE60B" stroke-width="0.2"/>
<path d="M109.118 122.247L112.388 120.717L112.557 121.405L109.286 122.935L109.118 122.247Z" fill="#FFE60B"/>
<path d="M109.792 124.999L113.4 124.844L113.231 124.156L109.623 124.311L109.792 124.999Z" fill="#FFE60B"/>
<path d="M109.539 123.967L109.37 123.279L112.81 122.436L112.978 123.124L109.539 123.967Z" fill="#FFE60B"/>
<circle cx="130.441" cy="117.022" r="0.808215" transform="rotate(-13.7682 130.441 117.022)" fill="#5A97F2" stroke="black" stroke-width="0.2"/>
<path d="M135.449 116.627C135.882 116.521 136.148 116.083 136.041 115.65C135.935 115.216 135.498 114.951 135.064 115.057C134.857 115.108 134.52 115.277 134.247 115.479C134.11 115.58 133.984 115.695 133.896 115.812C133.811 115.927 133.75 116.064 133.784 116.203C133.818 116.342 133.936 116.435 134.064 116.497C134.196 116.561 134.361 116.604 134.53 116.631C134.865 116.684 135.242 116.678 135.449 116.627Z" fill="#5A97F2" stroke="black" stroke-width="0.2"/>
<path d="M125.131 119.156C125.564 119.049 125.83 118.612 125.723 118.178C125.617 117.745 125.18 117.479 124.746 117.586C124.313 117.692 124.047 118.129 124.153 118.563C124.26 118.996 124.697 119.262 125.131 119.156Z" fill="#5A97F2" stroke="black" stroke-width="0.2"/>
<circle cx="119.435" cy="119.719" r="0.808215" transform="rotate(-13.7682 119.435 119.719)" fill="#5A97F2" stroke="black" stroke-width="0.2"/>
<path d="M108.43 122.416L109.104 125.167L99.8245 125.983L108.43 122.416Z" fill="url(#paint0_linear_411_279)"/>
<path d="M92.172 82.1211L92.4902 84.9859L94.1926 84.5679L92.4902 85.5785L93.4208 88.5269L92.172 86.3704L90.9231 88.5269L91.695 85.5785L90.1513 84.5679H91.695L92.172 82.1211Z" fill="white"/>
<path d="M101.983 151.558L101.983 152.975L104.677 153.026L103.012 153.934L103.648 155.402L102.691 154.391L100.318 155.402L101.511 153.934L99.2888 153.026H101.347L101.983 151.558Z" fill="white"/>
<path d="M135.977 86.4022L136.295 88.3597H137.324L136.492 89.5695L136.81 91.5269L135.977 90.3171L135.145 91.5269L135.463 89.5695L134.63 88.3597H135.659L135.977 86.4022Z" fill="white"/>
<path d="M146.497 126.468L146.725 128.436L147.745 128.187L146.974 129.002L146.601 131.02L146.02 129.002L145.184 128.187L146.02 128.436L146.497 126.468Z" fill="white"/>
<path d="M138.652 150.395L139.138 151.178L142.056 150.85L140.464 151.558L139.924 152.444L139.138 152.021L137.312 152.758L138.31 151.846L137.312 151.476L138.515 151.558L138.652 150.395Z" fill="white"/>
<path d="M98.6118 105.121L98.2546 106.086L99.0621 106.724L98.4419 106.941L97.6767 107.648L97.6767 106.724L96.3701 106.616L97.2263 106.045L97.0255 104.816L97.7555 105.692L98.6118 105.121Z" fill="white"/>
<ellipse cx="194.051" cy="203.966" rx="7.08215" ry="2.83286" fill="#707070"/>
<rect x="190.92" y="198.017" width="5.36753" height="5.94901" fill="#BBBBBB"/>
<path d="M187.303 192.413C186.316 189.983 187.374 187.205 189.726 186.046L191.506 185.169C192.835 184.515 194.387 184.483 195.742 185.084L197.776 185.986C200.378 187.139 201.494 190.23 200.229 192.779L197.629 198.017H189.578L187.303 192.413Z" fill="#D11919"/>
<path d="M137.96 195.8C137.96 197.55 136.058 198.425 133.711 198.425C129.462 198.425 129.462 197.55 129.462 195.8C129.462 194.834 131.364 195.8 133.711 195.8C136.058 195.8 137.96 194.834 137.96 195.8Z" fill="#2B4E10"/>
<ellipse cx="133.711" cy="195.801" rx="4.24929" ry="1.74972" fill="#86CD64"/>
<path d="M151.558 199.3C151.558 201.05 149.656 201.925 147.309 201.925C143.768 201.925 143.06 201.05 143.06 199.3C143.06 198.334 144.962 199.3 147.309 199.3C149.656 199.3 151.558 198.334 151.558 199.3Z" fill="#7A1C1C"/>
<ellipse cx="147.309" cy="199.3" rx="4.24929" ry="1.74972" fill="#E25050"/>
<path d="M147.875 206.299C147.875 208.049 145.973 208.923 143.626 208.923C139.518 208.923 139.377 208.049 139.377 206.299C139.377 205.332 141.279 206.299 143.626 206.299C145.973 206.299 147.875 205.332 147.875 206.299Z" fill="#3F27A0"/>
<ellipse cx="143.626" cy="206.299" rx="4.24929" ry="1.74972" fill="#509CE2"/>
<path d="M134.561 202.799C134.561 204.549 132.658 205.424 130.312 205.424C126.771 205.424 126.062 204.549 126.062 202.799C126.062 201.833 127.965 202.799 130.312 202.799C132.658 202.799 134.561 201.833 134.561 202.799Z" fill="#979A13"/>
<ellipse cx="130.312" cy="202.8" rx="4.24929" ry="1.74972" fill="#EFE377"/>
<path d="M47.4504 24.0793C23.3711 31.8697 23.9377 58.0737 23.3711 60.9065C22.8046 63.7394 23.3712 104.816 31.8696 167.139L58.7819 268.414L62.6172 295.645C64.7659 310.9 64.2896 326.411 61.209 341.506V341.506C59.5941 349.419 57.2732 357.171 54.2739 364.669L53.5057 366.59C49.481 376.652 44.3629 386.24 38.2436 395.184V395.184" stroke="#E3B337" stroke-width="8" stroke-linecap="round"/>
<path d="M64.7385 35.4108C42.6373 43.0525 43.1573 68.7564 42.6373 71.5352C42.2558 73.5737 42.4341 95.8022 45.6359 131.637C48.2601 161.007 55.2895 189.786 64.9166 217.657L72.4089 239.347C77.9431 255.369 81.6588 271.962 83.4861 288.814L85.1452 304.114C86.4482 316.131 85.9678 328.274 83.7196 340.15V340.15C80.8133 355.502 75.0004 370.157 66.5936 383.328L64.7385 386.234L56.288 399.433" stroke="#A20F05" stroke-width="8" stroke-linecap="round"/>
<path d="M104.816 26.9122C105.286 26.1191 107.739 23.7018 110.691 20.7252C116.053 15.3176 125.308 15.0904 130.459 20.6992L130.942 21.225C135.741 26.4488 144.067 26.1648 148.498 20.626V20.626C152.976 15.0277 161.416 14.8086 166.179 20.1671L167.119 21.224C171.693 26.3697 179.524 26.96 184.817 22.5582L189.802 18.4136" stroke="url(#paint1_linear_411_279)" stroke-width="8" stroke-linecap="round"/>
<defs>
<linearGradient id="paint0_linear_411_279" x1="109.065" y1="123.938" x2="92.7763" y2="127.479" gradientUnits="userSpaceOnUse">
<stop stop-color="#00B3FF"/>
<stop offset="1" stop-color="#00B3FF" stop-opacity="0"/>
</linearGradient>
<linearGradient id="paint1_linear_411_279" x1="204.281" y1="19.8301" x2="96.0025" y2="19.8301" gradientUnits="userSpaceOnUse">
<stop stop-color="#A10F05"/>
<stop offset="1" stop-color="#E3B337"/>
</linearGradient>
</defs>
</svg>
