<svg width="1280" height="227" viewBox="0 0 1280 227" fill="none" xmlns="http://www.w3.org/2000/svg">
<path d="M-86 70.0866C-86 31.3788 -54.6211 0 -15.9133 0C-5.43777 0 4.90459 2.34826 14.353 6.87206L165 79C256.191 114.32 357.442 113.397 447.973 76.4194L520 47C623.931 16.0839 733.594 9.56585 840.455 27.9531L1029.94 60.5578C1091.94 71.2258 1155.73 61.3257 1211.58 32.367L1257.47 8.57289C1268.33 2.94015 1280.39 0 1292.62 0C1334.81 0 1369 34.1948 1369 76.3762V140C1369 217.32 1306.32 280 1229 280H54C-23.3198 280 -86 217.32 -86 140V70.0866Z" fill="#F4F4F4"/>
</svg>
