<svg width="307" height="427" viewBox="0 0 307 427" fill="none" xmlns="http://www.w3.org/2000/svg">
<rect x="65" y="26" width="130" height="140" fill="#F7EBC3"/>
<rect x="195" y="26" width="25" height="140" fill="#F7EBC3"/>
<rect x="195" y="26" width="25" height="140" fill="black" fill-opacity="0.1"/>
<rect x="115" y="98" width="30" height="18" fill="#F27878"/>
<rect x="145" y="98" width="4" height="18" fill="#DE7575"/>
<rect x="145" y="98" width="4" height="18" fill="black" fill-opacity="0.2"/>
<rect x="78" y="58" width="40" height="30" fill="#444444"/>
<rect x="76" y="58" width="40" height="30" fill="#737373"/>
<rect x="146" y="58" width="40" height="30" fill="#444444"/>
<rect x="144" y="58" width="40" height="30" fill="#737373"/>
<rect x="113" y="68" width="34" height="4" fill="#737373"/>
<rect x="98" y="139" width="64" height="10" fill="#B05656"/>
<rect x="98" y="133" width="10" height="8" fill="#B05656"/>
<rect x="152" y="133" width="10" height="8" fill="#B05656"/>
<rect x="65" width="130" height="37" fill="#EF761E"/>
<rect x="195" width="25" height="37" fill="#EF761E"/>
<rect x="195" width="25" height="37" fill="black" fill-opacity="0.1"/>
<rect x="65" y="13" width="130" height="6" fill="#ECECEC"/>
<rect x="65" width="130" height="6" fill="#ECECEC"/>
<rect x="195" y="13" width="25" height="6" fill="#ECECEC"/>
<rect x="195" y="13" width="25" height="6" fill="black" fill-opacity="0.1"/>
<rect x="195" width="25" height="6" fill="#ECECEC"/>
<rect x="195" width="25" height="6" fill="black" fill-opacity="0.1"/>
<rect x="59" y="26" width="136" height="20" fill="#944206"/>
<rect x="195" y="26" width="31" height="20" fill="#944206"/>
<rect x="195" y="26" width="31" height="20" fill="black" fill-opacity="0.2"/>
<rect x="119" y="166" width="30" height="26" fill="#DFD4B0"/>
<rect x="149" y="166" width="13" height="26" fill="#DFD4B0"/>
<rect x="149" y="166" width="13" height="26" fill="black" fill-opacity="0.2"/>
<rect x="35" y="199" width="29" height="219" fill="#4C5EA2"/>
<rect x="29" y="199" width="25" height="219" fill="#5F76CA"/>
<rect x="29" y="199" width="25" height="219" fill="black" fill-opacity="0.04"/>
<rect x="29" y="228" width="25" height="26" fill="#F9F9F9"/>
<rect x="29" y="228" width="25" height="26" fill="black" fill-opacity="0.04"/>
<rect x="29" y="280" width="25" height="26" fill="#F9F9F9"/>
<rect x="29" y="280" width="25" height="26" fill="black" fill-opacity="0.04"/>
<rect x="29" y="332" width="25" height="26" fill="#F9F9F9"/>
<rect x="29" y="332" width="25" height="26" fill="black" fill-opacity="0.04"/>
<rect x="29" y="384" width="25" height="26" fill="#F9F9F9"/>
<rect x="29" y="384" width="25" height="26" fill="black" fill-opacity="0.04"/>
<rect x="54" y="228" width="10" height="26" fill="#C7C7C7"/>
<rect x="54" y="280" width="10" height="26" fill="#C7C7C7"/>
<rect x="54" y="332" width="10" height="26" fill="#C7C7C7"/>
<rect x="54" y="384" width="10" height="26" fill="#C7C7C7"/>
<rect x="35" y="418" width="25" height="7" fill="#DFD4B0"/>
<rect x="32" y="418" width="22" height="7" fill="#F7EBC3"/>
<rect x="45" y="192" width="200" height="222.496" fill="#5F76CA"/>
<rect x="44" y="211.098" width="177" height="30.5574" fill="#F9F9F9"/>
<rect x="221" y="192" width="24" height="222.496" fill="#5F76CA"/>
<rect x="221" y="192" width="24" height="222.496" fill="black" fill-opacity="0.2"/>
<rect x="221" y="211.098" width="24" height="30.5574" fill="#F9F9F9"/>
<rect x="221" y="211.098" width="24" height="30.5574" fill="black" fill-opacity="0.2"/>
<rect x="44" y="211.098" width="177" height="30.5574" fill="#F9F9F9"/>
<rect x="44" y="272.213" width="177" height="30.5574" fill="#F9F9F9"/>
<rect x="44" y="333.328" width="177" height="30.5574" fill="#F9F9F9"/>
<rect x="44" y="394.443" width="177" height="30.5574" fill="#F9F9F9"/>
<rect x="221" y="211.098" width="24" height="30.5574" fill="#F9F9F9"/>
<rect x="221" y="211.098" width="24" height="30.5574" fill="black" fill-opacity="0.2"/>
<rect x="221" y="272.213" width="24" height="30.5574" fill="#F9F9F9"/>
<rect x="221" y="272.213" width="24" height="30.5574" fill="black" fill-opacity="0.2"/>
<rect x="221" y="333.328" width="24" height="30.5574" fill="#F9F9F9"/>
<rect x="221" y="333.328" width="24" height="30.5574" fill="black" fill-opacity="0.2"/>
<rect x="221" y="394.443" width="24" height="30.5574" fill="#F9F9F9"/>
<rect x="221" y="394.443" width="24" height="30.5574" fill="black" fill-opacity="0.2"/>
<rect x="232" y="199" width="29" height="219" fill="#4C5EA2"/>
<rect x="226" y="199" width="25" height="219" fill="#5F76CA"/>
<rect x="226" y="228" width="25" height="26" fill="#F9F9F9"/>
<rect x="226" y="280" width="25" height="26" fill="#F9F9F9"/>
<rect x="226" y="332" width="25" height="26" fill="#F9F9F9"/>
<rect x="226" y="384" width="25" height="26" fill="#F9F9F9"/>
<rect x="251" y="228" width="10" height="26" fill="#C7C7C7"/>
<rect x="251" y="280" width="10" height="26" fill="#C7C7C7"/>
<rect x="251" y="332" width="10" height="26" fill="#C7C7C7"/>
<rect x="251" y="384" width="10" height="26" fill="#C7C7C7"/>
<rect x="232" y="418" width="25" height="7" fill="#DFD4B0"/>
<rect x="229" y="418" width="22" height="7" fill="#F7EBC3"/>
<line y1="425" x2="307" y2="425" stroke="#595959" stroke-width="4"/>
</svg>
