<svg width="51" height="51" viewBox="0 0 51 51" fill="none" xmlns="http://www.w3.org/2000/svg">
<path d="M25.7524 50.2778C39.5595 50.2778 50.7524 39.0849 50.7524 25.2778C50.7524 11.4707 39.5595 0.277832 25.7524 0.277832C11.9453 0.277832 0.752441 11.4707 0.752441 25.2778C0.752441 39.0849 11.9453 50.2778 25.7524 50.2778Z" fill="#34AADF"/>
<path d="M11.4693 24.7303C11.4693 24.7303 23.8531 19.4618 28.1479 17.6067C29.7944 16.8647 35.3778 14.4901 35.3778 14.4901C35.3778 14.4901 37.9548 13.4513 37.74 15.9742C37.6683 17.0131 37.0957 20.649 36.5231 24.5819C35.6641 30.1472 34.7335 36.2319 34.7335 36.2319C34.7335 36.2319 34.5903 37.9387 33.3735 38.2355C32.1566 38.5323 30.1522 37.1967 29.7944 36.8998C29.508 36.6772 24.4257 33.338 22.5645 31.7055C22.0635 31.2603 21.4908 30.3699 22.6361 29.331C25.2131 26.8822 28.2911 23.8399 30.1522 21.9106C31.0112 21.0201 31.8702 18.9424 28.2911 21.4653C23.2088 25.1013 18.198 28.5147 18.198 28.5147C18.198 28.5147 17.0527 29.2567 14.9053 28.5889C12.7577 27.9211 10.2523 27.0306 10.2523 27.0306C10.2523 27.0306 8.53447 25.9176 11.4693 24.7303Z" fill="white"/>
</svg>
