<svg width="50" height="61" viewBox="0 0 50 61" fill="none" xmlns="http://www.w3.org/2000/svg">
<path d="M6.52173 8.63208H13.7681V50.3712L6.52173 55.5886V8.63208Z" fill="#6695CB"/>
<path d="M6.52173 8.63208H13.7681V50.3712L6.52173 55.5886V8.63208Z" fill="black" fill-opacity="0.2"/>
<path d="M13.7681 8.63208L27.5362 24.719V32.7625L13.7681 16.6756V8.63208Z" fill="#6695CB"/>
<path d="M13.7681 8.63208L27.5362 24.719V32.7625L13.7681 16.6756V8.63208Z" fill="black" fill-opacity="0.2"/>
<path d="M42.0289 0.479919L27.5362 24.641V32.7625L42.0289 16.5194V0.479919Z" fill="#6695CB"/>
<path d="M42.0289 0.479919L27.5362 24.641V32.7625L42.0289 16.5194V0.479919Z" fill="black" fill-opacity="0.2"/>
<path d="M42.0289 0.153872L49.9999 3.74083V54.9365L42.0289 60.1539V0.153872Z" fill="#6695CB"/>
<path d="M42.0289 0.153872L49.9999 3.74083V54.9365L42.0289 60.1539V0.153872Z" fill="black" fill-opacity="0.2"/>
<path d="M4.34778 8.63208H11.5942V50.3712L4.34778 55.5886V8.63208Z" fill="#6695CB"/>
<path d="M11.5942 8.63208L25.3624 24.719V32.7625L11.5942 16.6756V8.63208Z" fill="#6695CB"/>
<path d="M39.8551 0.479919L25.3623 24.641V32.7625L39.8551 16.5194V0.479919Z" fill="#6695CB"/>
<path d="M39.8551 0.153872L47.8261 3.74083V54.9365L39.8551 60.1539V0.153872Z" fill="#6695CB"/>
<path d="M2.17395 8.63208H9.42033V50.3712L2.17395 55.5886V8.63208Z" fill="#D2DD54"/>
<path d="M2.17395 8.63208H9.42033V50.3712L2.17395 55.5886V8.63208Z" fill="black" fill-opacity="0.2"/>
<path d="M9.42029 8.63208L23.1884 24.719V32.7625L9.42029 16.6756V8.63208Z" fill="#D2DD54"/>
<path d="M9.42029 8.63208L23.1884 24.719V32.7625L9.42029 16.6756V8.63208Z" fill="black" fill-opacity="0.2"/>
<path d="M37.6812 0.479919L23.1884 24.641V32.7625L37.6812 16.5194V0.479919Z" fill="#D2DD54"/>
<path d="M37.6812 0.479919L23.1884 24.641V32.7625L37.6812 16.5194V0.479919Z" fill="black" fill-opacity="0.2"/>
<path d="M37.6812 0.153872L45.6522 3.74083V54.9365L37.6812 60.1539V0.153872Z" fill="#D2DD54"/>
<path d="M37.6812 0.153872L45.6522 3.74083V54.9365L37.6812 60.1539V0.153872Z" fill="black" fill-opacity="0.2"/>
<path d="M0 8.63208H7.24638V50.3712L0 55.5886V8.63208Z" fill="#D2DD54"/>
<path d="M7.24634 8.63208L21.0145 24.719V32.7625L7.24634 16.6756V8.63208Z" fill="#D2DD54"/>
<path d="M35.5072 0.479919L21.0144 24.641V32.7625L35.5072 16.5194V0.479919Z" fill="#D2DD54"/>
<path d="M35.5072 0.153872L43.4782 3.74083V54.9365L35.5072 60.1539V0.153872Z" fill="#D2DD54"/>
</svg>
