<svg width="51" height="51" viewBox="0 0 51 51" fill="none" xmlns="http://www.w3.org/2000/svg">
<path d="M17.4211 25.6123C17.4211 21.0101 21.1511 17.2783 25.7534 17.2783C30.3558 17.2783 34.0878 21.0101 34.0878 25.6123C34.0878 30.2145 30.3558 33.9463 25.7534 33.9463C21.1511 33.9463 17.4211 30.2145 17.4211 25.6123ZM12.9157 25.6123C12.9157 32.7023 18.6632 38.4495 25.7534 38.4495C32.8437 38.4495 38.5912 32.7023 38.5912 25.6123C38.5912 18.5223 32.8437 12.7751 25.7534 12.7751C18.6632 12.7751 12.9157 18.5223 12.9157 25.6123ZM36.0993 12.2661C36.099 12.8594 36.2747 13.4395 36.6042 13.933C36.9337 14.4265 37.4021 14.8112 37.9502 15.0385C38.4983 15.2658 39.1015 15.3254 39.6835 15.2099C40.2655 15.0944 40.8002 14.8089 41.2199 14.3895C41.6397 13.9701 41.9256 13.4356 42.0416 12.8538C42.1576 12.2719 42.0984 11.6686 41.8716 11.1204C41.6447 10.5721 41.2604 10.1034 40.7672 9.77356C40.2739 9.44372 39.6939 9.26754 39.1006 9.2673H39.0994C38.304 9.26768 37.5413 9.5837 36.9788 10.146C36.4163 10.7082 36.0999 11.4708 36.0993 12.2661V12.2661ZM15.653 45.9617C13.2155 45.8507 11.8907 45.4447 11.0103 45.1017C9.84301 44.6473 9.01017 44.1061 8.13454 43.2317C7.2589 42.3573 6.71688 41.5253 6.26446 40.3581C5.92125 39.4781 5.51523 38.1529 5.40443 35.7155C5.28322 33.0803 5.25902 32.2887 5.25902 25.6125C5.25902 18.9363 5.28522 18.1469 5.40443 15.5095C5.51543 13.0721 5.92445 11.7495 6.26446 10.8669C6.71888 9.6997 7.2601 8.8669 8.13454 7.9913C9.00897 7.1157 9.84101 6.5737 11.0103 6.1213C11.8903 5.7781 13.2155 5.3721 15.653 5.2613C18.2883 5.1401 19.08 5.1159 25.7534 5.1159C32.4269 5.1159 33.2193 5.1421 35.8568 5.2613C38.2943 5.3723 39.617 5.7813 40.4996 6.1213C41.6669 6.5737 42.4997 7.1169 43.3753 7.9913C44.251 8.8657 44.791 9.6997 45.2454 10.8669C45.5886 11.7469 45.9947 13.0721 46.1055 15.5095C46.2267 18.1469 46.2509 18.9363 46.2509 25.6125C46.2509 32.2887 46.2267 33.0781 46.1055 35.7155C45.9945 38.1529 45.5864 39.4777 45.2454 40.3581C44.791 41.5253 44.2498 42.3581 43.3753 43.2317C42.5009 44.1053 41.6669 44.6473 40.4996 45.1017C39.6196 45.4449 38.2943 45.8509 35.8568 45.9617C33.2215 46.0829 32.4299 46.1071 25.7534 46.1071C19.077 46.1071 18.2875 46.0829 15.653 45.9617V45.9617ZM15.446 0.763705C12.7845 0.884905 10.9659 1.3069 9.37759 1.9249C7.73272 2.5631 6.34026 3.4193 4.94881 4.8085C3.55735 6.1977 2.70332 7.5923 2.06509 9.2371C1.44707 10.8263 1.02505 12.6439 0.903847 15.3053C0.780643 17.9709 0.752441 18.8231 0.752441 25.6123C0.752441 32.4015 0.780643 33.2537 0.903847 35.9193C1.02505 38.5809 1.44707 40.3983 2.06509 41.9875C2.70332 43.6313 3.55755 45.0275 4.94881 46.4161C6.34006 47.8047 7.73272 48.6597 9.37759 49.2997C10.9689 49.9177 12.7845 50.3397 15.446 50.4609C18.1131 50.5821 18.964 50.6123 25.7534 50.6123C32.5429 50.6123 33.3951 50.5841 36.0609 50.4609C38.7226 50.3397 40.54 49.9177 42.1293 49.2997C43.7732 48.6597 45.1666 47.8053 46.5581 46.4161C47.9495 45.0269 48.8018 43.6313 49.4418 41.9875C50.0598 40.3983 50.4838 38.5807 50.603 35.9193C50.7242 33.2517 50.7524 32.4015 50.7524 25.6123C50.7524 18.8231 50.7242 17.9709 50.603 15.3053C50.4818 12.6437 50.0598 10.8253 49.4418 9.2371C48.8018 7.5933 47.9473 6.1999 46.5581 4.8085C45.1688 3.4171 43.7732 2.5631 42.1313 1.9249C40.54 1.3069 38.7224 0.882905 36.0629 0.763705C33.3971 0.642505 32.5449 0.612305 25.7554 0.612305C18.966 0.612305 18.1131 0.640505 15.446 0.763705Z" fill="url(#paint0_radial_172_1516)"/>
<path d="M17.4211 25.6123C17.4211 21.0101 21.1511 17.2783 25.7534 17.2783C30.3558 17.2783 34.0878 21.0101 34.0878 25.6123C34.0878 30.2145 30.3558 33.9463 25.7534 33.9463C21.1511 33.9463 17.4211 30.2145 17.4211 25.6123ZM12.9157 25.6123C12.9157 32.7023 18.6632 38.4495 25.7534 38.4495C32.8437 38.4495 38.5912 32.7023 38.5912 25.6123C38.5912 18.5223 32.8437 12.7751 25.7534 12.7751C18.6632 12.7751 12.9157 18.5223 12.9157 25.6123ZM36.0993 12.2661C36.099 12.8594 36.2747 13.4395 36.6042 13.933C36.9337 14.4265 37.4021 14.8112 37.9502 15.0385C38.4983 15.2658 39.1015 15.3254 39.6835 15.2099C40.2655 15.0944 40.8002 14.8089 41.2199 14.3895C41.6397 13.9701 41.9256 13.4356 42.0416 12.8538C42.1576 12.2719 42.0984 11.6686 41.8716 11.1204C41.6447 10.5721 41.2604 10.1034 40.7672 9.77356C40.2739 9.44372 39.6939 9.26754 39.1006 9.2673H39.0994C38.304 9.26768 37.5413 9.5837 36.9788 10.146C36.4163 10.7082 36.0999 11.4708 36.0993 12.2661V12.2661ZM15.653 45.9617C13.2155 45.8507 11.8907 45.4447 11.0103 45.1017C9.84301 44.6473 9.01017 44.1061 8.13454 43.2317C7.2589 42.3573 6.71688 41.5253 6.26446 40.3581C5.92125 39.4781 5.51523 38.1529 5.40443 35.7155C5.28322 33.0803 5.25902 32.2887 5.25902 25.6125C5.25902 18.9363 5.28522 18.1469 5.40443 15.5095C5.51543 13.0721 5.92445 11.7495 6.26446 10.8669C6.71888 9.6997 7.2601 8.8669 8.13454 7.9913C9.00897 7.1157 9.84101 6.5737 11.0103 6.1213C11.8903 5.7781 13.2155 5.3721 15.653 5.2613C18.2883 5.1401 19.08 5.1159 25.7534 5.1159C32.4269 5.1159 33.2193 5.1421 35.8568 5.2613C38.2943 5.3723 39.617 5.7813 40.4996 6.1213C41.6669 6.5737 42.4997 7.1169 43.3753 7.9913C44.251 8.8657 44.791 9.6997 45.2454 10.8669C45.5886 11.7469 45.9947 13.0721 46.1055 15.5095C46.2267 18.1469 46.2509 18.9363 46.2509 25.6125C46.2509 32.2887 46.2267 33.0781 46.1055 35.7155C45.9945 38.1529 45.5864 39.4777 45.2454 40.3581C44.791 41.5253 44.2498 42.3581 43.3753 43.2317C42.5009 44.1053 41.6669 44.6473 40.4996 45.1017C39.6196 45.4449 38.2943 45.8509 35.8568 45.9617C33.2215 46.0829 32.4299 46.1071 25.7534 46.1071C19.077 46.1071 18.2875 46.0829 15.653 45.9617V45.9617ZM15.446 0.763705C12.7845 0.884905 10.9659 1.3069 9.37759 1.9249C7.73272 2.5631 6.34026 3.4193 4.94881 4.8085C3.55735 6.1977 2.70332 7.5923 2.06509 9.2371C1.44707 10.8263 1.02505 12.6439 0.903847 15.3053C0.780643 17.9709 0.752441 18.8231 0.752441 25.6123C0.752441 32.4015 0.780643 33.2537 0.903847 35.9193C1.02505 38.5809 1.44707 40.3983 2.06509 41.9875C2.70332 43.6313 3.55755 45.0275 4.94881 46.4161C6.34006 47.8047 7.73272 48.6597 9.37759 49.2997C10.9689 49.9177 12.7845 50.3397 15.446 50.4609C18.1131 50.5821 18.964 50.6123 25.7534 50.6123C32.5429 50.6123 33.3951 50.5841 36.0609 50.4609C38.7226 50.3397 40.54 49.9177 42.1293 49.2997C43.7732 48.6597 45.1666 47.8053 46.5581 46.4161C47.9495 45.0269 48.8018 43.6313 49.4418 41.9875C50.0598 40.3983 50.4838 38.5807 50.603 35.9193C50.7242 33.2517 50.7524 32.4015 50.7524 25.6123C50.7524 18.8231 50.7242 17.9709 50.603 15.3053C50.4818 12.6437 50.0598 10.8253 49.4418 9.2371C48.8018 7.5933 47.9473 6.1999 46.5581 4.8085C45.1688 3.4171 43.7732 2.5631 42.1313 1.9249C40.54 1.3069 38.7224 0.882905 36.0629 0.763705C33.3971 0.642505 32.5449 0.612305 25.7554 0.612305C18.966 0.612305 18.1131 0.640505 15.446 0.763705Z" fill="url(#paint1_radial_172_1516)"/>
<defs>
<radialGradient id="paint0_radial_172_1516" cx="0" cy="0" r="1" gradientUnits="userSpaceOnUse" gradientTransform="translate(7.39551 50.8485) scale(65.2734 65.2708)">
<stop offset="0.09" stop-color="#FA8F21"/>
<stop offset="0.78" stop-color="#D82D7E"/>
</radialGradient>
<radialGradient id="paint1_radial_172_1516" cx="0" cy="0" r="1" gradientUnits="userSpaceOnUse" gradientTransform="translate(31.0765 53.0885) scale(51.4445 51.4424)">
<stop offset="0.64" stop-color="#8C3AAA" stop-opacity="0"/>
<stop offset="1" stop-color="#8C3AAA"/>
</radialGradient>
</defs>
</svg>
