<svg width="160" height="160" viewBox="0 0 160 160" fill="none" xmlns="http://www.w3.org/2000/svg">
<rect width="160" height="160" fill="#BA7D50"/>
<rect x="10" y="10" width="140" height="140" fill="#52C1E5"/>
<path d="M10 125.5L45.2045 112.562C60.3665 106.989 76.8764 106.219 92.4911 110.357L100.19 112.396C117.227 116.911 135.384 113.85 150 104V150H10V125.5Z" fill="#1D741B"/>
<circle cx="54" cy="44" r="20" fill="#FFF500"/>
<path d="M146.5 55.5C146.5 61.8513 135.136 61 120.5 61C105.864 61 93.5 61.8513 93.5 55.5C93.5 49.1487 104.5 36.5 120.5 48.5C140 36 146.5 49.1487 146.5 55.5Z" fill="white"/>
<ellipse cx="120" cy="48" rx="11" ry="10" fill="white"/>
</svg>
