<svg width="864" height="610" viewBox="0 0 864 610" fill="none" xmlns="http://www.w3.org/2000/svg">
<path d="M548 568H566V608H548V568Z" fill="#C98159"/>
<path d="M648 568H666V608H648V568Z" fill="#C98159"/>
<rect x="530" y="568" width="18" height="40" fill="#C98159"/>
<rect x="530" y="568" width="18" height="40" fill="black" fill-opacity="0.2"/>
<rect x="630" y="568" width="18" height="40" fill="#A16747"/>
<rect x="400" y="554" width="18" height="54" fill="#C98159"/>
<rect x="400" y="554" width="18" height="54" fill="black" fill-opacity="0.02"/>
<rect x="484" y="554" width="16" height="54" fill="#C98159"/>
<rect x="484" y="554" width="16" height="54" fill="black" fill-opacity="0.04"/>
<rect x="468" y="554" width="16" height="54" fill="#A16747"/>
<rect x="468" y="554" width="16" height="54" fill="black" fill-opacity="0.04"/>
<rect x="384" y="554" width="16" height="54" fill="#A16747"/>
<rect x="384" y="554" width="16" height="54" fill="black" fill-opacity="0.02"/>
<path d="M374 410C374 404.477 378.477 400 384 400H528V568H382C377.582 568 374 564.418 374 560V410Z" fill="#7EE4BF"/>
<rect x="484" y="240" width="192" height="328" rx="10" fill="#65D1AA"/>
<path d="M384 472H548V568H392C387.582 568 384 564.418 384 560V472Z" fill="#7EE4BF"/>
<path d="M538 410C538 404.477 542.477 400 548 400H566V472H538V410Z" fill="#7EE4BF"/>
<path d="M548 410C548 404.477 552.477 400 558 400H676V563C676 565.761 673.761 568 671 568H548V410Z" fill="#82F3CA"/>
<path d="M656 240H666C671.523 240 676 244.477 676 250V400H656V240Z" fill="#82F3CA"/>
<path d="M384 410C384 404.477 388.477 400 394 400H484V472H384V410Z" fill="#5EBD9B"/>
<line y1="609" x2="864" y2="609" stroke="#2B2B2B" stroke-width="2"/>
<mask id="path-17-inside-1_330_462" fill="white">
<path d="M122 364C122 352.954 130.954 344 142 344H216V400H142C130.954 400 122 391.046 122 380V364Z"/>
</mask>
<path d="M122 364C122 352.954 130.954 344 142 344H216V400H142C130.954 400 122 391.046 122 380V364Z" fill="#CDCDCD"/>
<path d="M119 364C119 351.297 129.297 341 142 341H216V347H142C132.611 347 125 354.611 125 364H119ZM216 403H142C129.297 403 119 392.703 119 380H125C125 389.389 132.611 397 142 397H216V403ZM142 403C129.297 403 119 392.703 119 380V364C119 351.297 129.297 341 142 341V347C132.611 347 125 354.611 125 364V380C125 389.389 132.611 397 142 397V403ZM216 344V400V344Z" fill="#354A2D" mask="url(#path-17-inside-1_330_462)"/>
<mask id="path-19-inside-2_330_462" fill="white">
<path d="M216 344H270V400H216V344Z"/>
</mask>
<path d="M216 344H270V400H216V344Z" fill="#F7F7F7"/>
<path d="M216 347H270V341H216V347ZM270 397H216V403H270V397Z" fill="#5E9D5D" mask="url(#path-19-inside-2_330_462)"/>
<path d="M168 356H208V360H168V356Z" fill="#9E9E9E"/>
<path d="M142 356H162V360H142V356Z" fill="#9E9E9E"/>
<path d="M142 370H202V374H142V370Z" fill="#9E9E9E"/>
<path d="M158 384H208V388H158V384Z" fill="#9E9E9E"/>
<path d="M222 356H254V360H222V356Z" fill="#D7D7D7"/>
<path d="M234 370H264V374H234V370Z" fill="#D7D7D7"/>
<path d="M222 384H268V388H222V384Z" fill="#D7D7D7"/>
<path d="M258 356H268V360H258V356Z" fill="#D7D7D7"/>
<path d="M222 370H226V374H222V370Z" fill="#D7D7D7"/>
<mask id="path-30-inside-3_330_462" fill="white">
<path d="M116 324C116 312.954 124.954 304 136 304H226V344H136C124.954 344 116 335.046 116 324V324Z"/>
</mask>
<path d="M116 324C116 312.954 124.954 304 136 304H226V344H136C124.954 344 116 335.046 116 324V324Z" fill="#CDCDCD"/>
<path d="M113 324C113 311.297 123.297 301 136 301H226V307H136C126.611 307 119 314.611 119 324H113ZM226 347H136C123.297 347 113 336.703 113 324H119C119 333.389 126.611 341 136 341H226V347ZM136 347C123.297 347 113 336.703 113 324C113 311.297 123.297 301 136 301V307C126.611 307 119 314.611 119 324C119 333.389 126.611 341 136 341V347ZM226 304V344V304Z" fill="#5D0011" mask="url(#path-30-inside-3_330_462)"/>
<mask id="path-32-inside-4_330_462" fill="white">
<path d="M224 304H278V344H224V304Z"/>
</mask>
<path d="M224 304H278V344H224V304Z" fill="#F7F7F7"/>
<path d="M224 307H278V301H224V307ZM278 341H224V347H278V341Z" fill="#B42640" mask="url(#path-32-inside-4_330_462)"/>
<path d="M152 330H176V334H152V330Z" fill="#9E9E9E"/>
<path d="M194 328H216V332H194V328Z" fill="#9E9E9E"/>
<path d="M156 316H220V320H156V316Z" fill="#9E9E9E"/>
<path d="M232 316H274V320H232V316Z" fill="#D7D7D7"/>
<path d="M252 328H274V332H252V328Z" fill="#D7D7D7"/>
<path d="M232 328H254V332H232V328Z" fill="#D7D7D7"/>
<mask id="path-40-inside-5_330_462" fill="white">
<path d="M140 284C140 272.954 148.954 264 160 264H218V304H160C148.954 304 140 295.046 140 284V284Z"/>
</mask>
<path d="M140 284C140 272.954 148.954 264 160 264H218V304H160C148.954 304 140 295.046 140 284V284Z" fill="#CDCDCD"/>
<path d="M137 284C137 271.297 147.297 261 160 261H218V267H160C150.611 267 143 274.611 143 284H137ZM218 307H160C147.297 307 137 296.703 137 284H143C143 293.389 150.611 301 160 301H218V307ZM160 307C147.297 307 137 296.703 137 284C137 271.297 147.297 261 160 261V267C150.611 267 143 274.611 143 284C143 293.389 150.611 301 160 301V307ZM218 264V304V264Z" fill="#00145D" mask="url(#path-40-inside-5_330_462)"/>
<mask id="path-42-inside-6_330_462" fill="white">
<path d="M218 264H254V304H218V264Z"/>
</mask>
<path d="M218 264H254V304H218V264Z" fill="#F7F7F7"/>
<path d="M218 267H254V261H218V267ZM254 301H218V307H254V301Z" fill="#526195" mask="url(#path-42-inside-6_330_462)"/>
<path d="M164 276H186V280H164V276Z" fill="#9E9E9E"/>
<path d="M194 278H210V282H194V278Z" fill="#9E9E9E"/>
<path d="M164 288H206V292H164V288Z" fill="#9E9E9E"/>
<path d="M222 276H250V280H222V276Z" fill="#D7D7D7"/>
<path d="M236 288H248V292H236V288Z" fill="#D7D7D7"/>
<path d="M224 286H234V290H224V286Z" fill="#D7D7D7"/>
<path d="M203.021 146.084C203.598 143.921 205.558 142.416 207.797 142.416V142.416C210.973 142.416 213.325 145.366 212.617 148.462L203.127 189.941C202.387 193.173 202.463 196.539 203.347 199.735L211.973 230.913C212.993 234.597 210.222 238.238 206.4 238.238V238.238C203.8 238.238 201.52 236.503 200.827 233.997L191.449 200.105C190.5 196.674 190.484 193.053 191.402 189.614L203.021 146.084Z" fill="#D9D9D9"/>
<path d="M200.173 143.92C200.619 142.021 202.588 140.904 204.447 141.496V141.496C206.085 142.018 207.061 143.697 206.705 145.379L197.223 190.115C196.636 192.883 196.644 195.743 197.244 198.508L204.158 230.33C204.639 232.542 203.394 234.764 201.257 235.51V235.51C198.667 236.415 195.88 234.799 195.377 232.102L189.105 198.454C188.596 195.724 188.661 192.918 189.296 190.214L200.173 143.92Z" fill="#9B9B9B"/>
<path fill-rule="evenodd" clip-rule="evenodd" d="M170.963 259.517H245.037C243.523 240.282 227.519 225.148 208 225.148C188.481 225.148 172.477 240.282 170.963 259.517Z" fill="#9B9B9B"/>
<path d="M245.126 262.506C225 262.506 231.595 262.506 216 262.506C200.405 262.506 190.964 265.472 190.964 262.506C190.964 244.574 193.926 229.631 210.222 225.148C226.519 224.401 246.519 242.333 245.126 262.506Z" fill="#D9D9D9"/>
<mask id="path-54-outside-7_330_462" maskUnits="userSpaceOnUse" x="191.704" y="258.517" width="57" height="6" fill="black">
<rect fill="white" x="191.704" y="258.517" width="57" height="6"/>
<path d="M191.704 259.517H245.759C246.997 259.517 248 260.521 248 261.759V261.759C248 262.996 246.997 264 245.759 264H191.704V259.517Z"/>
</mask>
<path d="M191.704 259.517H245.759C246.997 259.517 248 260.521 248 261.759V261.759C248 262.996 246.997 264 245.759 264H191.704V259.517Z" fill="#D9D9D9"/>
<path d="M191.704 259.017H246.009C247.385 259.017 248.5 260.133 248.5 261.509L247.5 261.759C247.5 260.797 246.721 260.017 245.759 260.017H191.704V259.017ZM248 264H191.704H248ZM191.704 264V259.517V264ZM246.009 259.017C247.385 259.017 248.5 260.133 248.5 261.509C248.5 262.885 247.385 264 246.009 264H245.759C246.721 264 247.5 262.996 247.5 261.759C247.5 260.797 246.721 260.017 245.759 260.017L246.009 259.017Z" fill="#7F7D7D" mask="url(#path-54-outside-7_330_462)"/>
<mask id="path-56-outside-8_330_462" maskUnits="userSpaceOnUse" x="167" y="258.517" width="25" height="6" fill="black">
<rect fill="white" x="167" y="258.517" width="25" height="6"/>
<path d="M168 261.759C168 260.521 169.004 259.517 170.241 259.517H191.704V264H170.241C169.004 264 168 262.996 168 261.759V261.759Z"/>
</mask>
<path d="M168 261.759C168 260.521 169.004 259.517 170.241 259.517H191.704V264H170.241C169.004 264 168 262.996 168 261.759V261.759Z" fill="#9B9B9B"/>
<path d="M167.5 261.509C167.5 260.133 168.615 259.017 169.991 259.017H191.704V260.017H170.241C169.28 260.017 168.5 260.797 168.5 261.759L167.5 261.509ZM191.704 264H168H191.704ZM169.991 264C168.615 264 167.5 262.885 167.5 261.509C167.5 260.133 168.615 259.017 169.991 259.017L170.241 260.017C169.28 260.017 168.5 260.797 168.5 261.759C168.5 262.996 169.28 264 170.241 264H169.991ZM191.704 259.517V264V259.517Z" fill="#626262" mask="url(#path-56-outside-8_330_462)"/>
<path d="M216.889 238.419H222.815V242.038C222.815 243.674 221.488 245.001 219.852 245.001V245.001C218.215 245.001 216.889 243.674 216.889 242.038V238.419Z" fill="url(#paint0_linear_330_462)"/>
<ellipse cx="219.852" cy="238.419" rx="2.96296" ry="1.31641" fill="url(#paint1_linear_330_462)"/>
<path d="M251.188 154.494C241.188 175.676 235.188 178.702 228.188 184.754C228.188 175.676 219.725 156.069 226.414 140.724C233.102 125.38 254.188 117.174 262.188 116.165C262.188 122.217 258.333 139.361 251.188 154.494Z" fill="#9B9B9B"/>
<ellipse cx="236.188" cy="146.425" rx="20" ry="20.1732" fill="#FFEFB5"/>
<path d="M184.8 117.968C189.626 108.032 201.627 103.819 211.53 108.713L221.74 113.759C231.642 118.652 235.696 130.8 230.87 140.735V140.735C226.044 150.671 214.043 154.884 204.14 149.99L193.93 144.944C184.028 140.05 179.974 127.903 184.8 117.968V117.968Z" fill="#D9D9D9"/>
<path d="M207.669 114.744L262.188 116.165L243.988 137.243C238.224 143.917 234.329 152.016 232.698 160.713L228.188 184.754L194.397 141.745L207.669 114.744Z" fill="#D9D9D9"/>
<rect x="593" y="418" width="28.32" height="190" fill="#C98159"/>
<rect x="88.55" y="418" width="26.55" height="190" fill="#C98159"/>
<rect x="741.68" y="418" width="28.32" height="190" fill="#C98159"/>
<rect x="239" y="418" width="26.55" height="190" fill="#B97752"/>
<rect x="564.68" y="418" width="28.32" height="190" fill="#A16747"/>
<rect x="62" y="418" width="26.55" height="190" fill="#A16747"/>
<rect x="713.36" y="418" width="28.32" height="190" fill="#A16747"/>
<rect x="212.45" y="418" width="26.55" height="190" fill="#945F41"/>
<rect x="62" y="400" width="531" height="40" fill="#A16747"/>
<rect x="593" y="400" width="177" height="40" fill="#C98159"/>
<path d="M437.082 341.926H436.582V342.426V398.492V398.992H437.082H502H502.5V398.492V379.312V379.032L502.262 378.886L483.198 367.154L469.983 342.192L469.842 341.926H469.541H437.082Z" fill="#EEEEEE" stroke="#BDBBBB"/>
<rect x="321.5" y="341.926" width="119.033" height="57.0656" rx="2.5" fill="#B1B1B1" stroke="#727272"/>
<mask id="path-76-inside-9_330_462" fill="white">
<path d="M327.902 371.934H351.508V386.688H327.902V371.934Z"/>
</mask>
<path d="M327.902 371.934H351.508V386.688H327.902V371.934Z" fill="#949494"/>
<path d="M327.902 371.934V371.434H327.402V371.934H327.902ZM327.902 372.434H351.508V371.434H327.902V372.434ZM328.402 386.688V371.934H327.402V386.688H328.402Z" fill="#727272" mask="url(#path-76-inside-9_330_462)"/>
<rect x="413.475" y="351.279" width="2.95082" height="17.7049" rx="1.47541" fill="#818181"/>
<rect x="419.377" y="351.279" width="2.95082" height="17.7049" rx="1.47541" fill="#818181"/>
<rect x="425.279" y="351.279" width="2.95082" height="17.7049" rx="1.47541" fill="#818181"/>
<rect x="431.18" y="351.279" width="2.95082" height="17.7049" rx="1.47541" fill="#818181"/>
<rect x="439.533" y="250.451" width="33.459" height="89.5246" fill="#EEEEEE" stroke="#BDBBBB"/>
<rect x="321.5" y="250.451" width="119.033" height="89.5246" rx="2.5" fill="#B1B1B1" stroke="#727272"/>
<mask id="path-84-inside-10_330_462" fill="white">
<path d="M404.623 277.508H428.229V309.967H404.623V277.508Z"/>
</mask>
<path d="M404.623 277.508H428.229V309.967H404.623V277.508Z" fill="#B7B7B7"/>
<path d="M404.623 277.508V276.508H403.623V277.508H404.623ZM428.229 277.508H429.229V276.508H428.229V277.508ZM428.229 309.967V310.967H429.229V309.967H428.229ZM404.623 309.967H403.623V310.967H404.623V309.967ZM404.623 278.508H428.229V276.508H404.623V278.508ZM427.229 277.508V309.967H429.229V277.508H427.229ZM428.229 308.967H404.623V310.967H428.229V308.967ZM405.623 309.967V277.508H403.623V309.967H405.623Z" fill="#727272" mask="url(#path-84-inside-10_330_462)"/>
<rect x="330.853" y="265.705" width="2.95082" height="26.5574" rx="1.47541" fill="#818181"/>
<rect x="336.755" y="265.705" width="2.95082" height="26.5574" rx="1.47541" fill="#818181"/>
<rect x="342.656" y="265.705" width="2.95082" height="26.5574" rx="1.47541" fill="#818181"/>
<rect x="348.557" y="265.705" width="2.95082" height="26.5574" rx="1.47541" fill="#818181"/>
<mask id="path-90-inside-11_330_462" fill="white">
<path d="M336.755 321.771H419.378V336.525H336.755V321.771Z"/>
</mask>
<path d="M336.755 321.771H419.378V336.525H336.755V321.771Z" fill="#949494"/>
<path d="M336.755 321.771V321.271H336.255V321.771H336.755ZM336.755 322.271H419.378V321.271H336.755V322.271ZM337.255 336.525V321.771H336.255V336.525H337.255Z" fill="#727272" mask="url(#path-90-inside-11_330_462)"/>
<rect x="407.574" y="283.41" width="11.8033" height="20.6557" fill="#B7B7B7"/>
<path d="M407.574 280.459H425.279L422.328 283.41H409.049L407.574 280.459Z" fill="#A8A8A8"/>
<path d="M407.574 307.017H425.279L422.328 304.066H409.049L407.574 307.017Z" fill="#A8A8A8"/>
<path d="M407.574 280.459L409.049 283.41V304.066L407.574 307.016V280.459Z" fill="#5C5C5C"/>
<path d="M425.279 280.459L419.378 283.41V304.066L425.279 307.016V280.459Z" fill="#D9D9D9"/>
<mask id="path-97-inside-12_330_462" fill="white">
<path d="M469.541 248H475.443V342.426H469.541V248Z"/>
</mask>
<path d="M469.541 248H475.443V342.426H469.541V248Z" fill="#C8C8B4"/>
<path d="M475.443 248H476.443V247H475.443V248ZM475.443 342.426V343.426H476.443V342.426H475.443ZM469.541 249H475.443V247H469.541V249ZM474.443 248V342.426H476.443V248H474.443ZM475.443 341.426H469.541V343.426H475.443V341.426Z" fill="#B2B29B" mask="url(#path-97-inside-12_330_462)"/>
<path d="M560.283 302.215C560.137 291.306 570.101 283.05 580.793 285.219V285.219C588.768 286.837 594.5 293.849 594.5 301.987V307.5L595.5 325V348L595.154 355.968C594.788 364.374 587.867 371 579.454 371V371C572.39 371 566.195 366.287 564.31 359.48L559.998 343.908C559.008 340.334 558.689 336.607 559.058 332.916L560.5 318.5L560.283 302.215Z" fill="#1C7B0D"/>
<path d="M567.055 294.824C566.995 287.538 574.098 282.339 581.025 284.6V284.6C585.411 286.031 588.378 290.122 588.378 294.735V306.5L589 324V347L588.621 361.007C588.486 366.013 584.389 370 579.382 370V370C574.883 370 571.037 366.76 570.273 362.325L566.594 340.953C566.199 338.659 566.073 336.326 566.217 334.003L567.243 317.5L567.055 294.824Z" fill="#2C921B"/>
<path d="M576.499 290C575.872 286.024 580.001 283.001 583.602 284.801L583.999 285V285C591.888 289.248 596.492 297.783 595.71 306.708L595.378 310.5L595.999 328L595.378 351.5V365.608C595.378 370.243 591.621 374 586.986 374V374C582.351 374 578.594 370.243 578.594 365.608V344.138C578.594 342.715 578.492 341.293 578.289 339.884L576.026 324.158C575.676 321.729 575.626 319.265 575.876 316.823L577.203 303.887C577.4 301.967 577.411 300.032 577.237 298.11L576.499 290V290Z" fill="#35BD1E"/>
<path d="M554 351H604V401H554V351Z" fill="url(#paint2_linear_330_462)"/>
<path d="M592.499 306L599.499 305L592.499 307V306Z" fill="#D52727"/>
<path d="M592.499 307L586.999 307.5L592.499 306V307Z" fill="black" fill-opacity="0.5"/>
<path d="M582.499 311L589.999 309L582.499 312V311Z" fill="#D52727"/>
<path d="M582.499 312L575.999 312.5L582.499 311V312Z" fill="black" fill-opacity="0.5"/>
<path d="M588 297L599 296L588 298V297Z" fill="#D52727"/>
<path d="M588 298L583 299L588 297V298Z" fill="black" fill-opacity="0.5"/>
<path d="M573 291.5L568 292.5L573 290.5V291.5Z" fill="black" fill-opacity="0.5"/>
<path d="M573 291.5L568 292.5L573 290.5V291.5Z" fill="black" fill-opacity="0.2"/>
<path d="M573 290.5L568 282L573 291.5V290.5Z" fill="#D52727"/>
<path d="M573 290.5L568 282L573 291.5V290.5Z" fill="black" fill-opacity="0.2"/>
<path d="M575.999 301.5L569.499 302.5L575.999 300.5V301.5Z" fill="black" fill-opacity="0.5"/>
<path d="M575.999 301.5L569.499 302.5L575.999 300.5V301.5Z" fill="black" fill-opacity="0.2"/>
<path d="M576 300.5L572 292L576 301.5V300.5Z" fill="#D52727"/>
<path d="M576 300.5L572 292L576 301.5V300.5Z" fill="black" fill-opacity="0.2"/>
<path d="M572 307.5L567.5 309.5L572 306.5V307.5Z" fill="black" fill-opacity="0.5"/>
<path d="M572 307.5L567.5 309.5L572 306.5V307.5Z" fill="black" fill-opacity="0.2"/>
<path d="M572 306.5L565.5 301.5L572 307.5V306.5Z" fill="#D52727"/>
<path d="M572 306.5L565.5 301.5L572 307.5V306.5Z" fill="black" fill-opacity="0.2"/>
<path d="M564.5 295.5L562 295L564.5 294.5V295.5Z" fill="black" fill-opacity="0.5"/>
<path d="M564.5 295.5L562 295L564.5 294.5V295.5Z" fill="black" fill-opacity="0.4"/>
<path d="M564.499 294.5L560.999 293L564.499 295.5V294.5Z" fill="#D52727"/>
<path d="M564.499 294.5L560.999 293L564.499 295.5V294.5Z" fill="black" fill-opacity="0.4"/>
<path d="M562.5 302.5H560.5L562.5 301.5V302.5Z" fill="black" fill-opacity="0.5"/>
<path d="M562.5 302.5H560.5L562.5 301.5V302.5Z" fill="black" fill-opacity="0.4"/>
<path d="M562.5 301.5L560 301L562.5 302.5V301.5Z" fill="#D52727"/>
<path d="M562.5 301.5L560 301L562.5 302.5V301.5Z" fill="black" fill-opacity="0.4"/>
<path d="M564.501 310.5L562.501 310L564.501 309.5V310.5Z" fill="black" fill-opacity="0.5"/>
<path d="M564.501 310.5L562.501 310L564.501 309.5V310.5Z" fill="black" fill-opacity="0.4"/>
<path d="M564.501 309.5L562.001 308.5L564.501 310.5V309.5Z" fill="#D52727"/>
<path d="M564.501 309.5L562.001 308.5L564.501 310.5V309.5Z" fill="black" fill-opacity="0.4"/>
<path d="M563.499 318.5H561.499L563.499 317.5V318.5Z" fill="black" fill-opacity="0.5"/>
<path d="M563.499 318.5H561.499L563.499 317.5V318.5Z" fill="black" fill-opacity="0.4"/>
<path d="M563.5 317.5H560.5L563.5 318.5V317.5Z" fill="#D52727"/>
<path d="M563.5 317.5H560.5L563.5 318.5V317.5Z" fill="black" fill-opacity="0.4"/>
<path d="M564.5 326H562L564.5 325V326Z" fill="black" fill-opacity="0.5"/>
<path d="M564.5 326H562L564.5 325V326Z" fill="black" fill-opacity="0.4"/>
<path d="M564.5 325H560.5L564.5 326V325Z" fill="#D52727"/>
<path d="M564.5 325H560.5L564.5 326V325Z" fill="black" fill-opacity="0.4"/>
<path d="M562.499 334.5L559.999 334L562.499 333.5V334.5Z" fill="black" fill-opacity="0.5"/>
<path d="M562.499 334.5L559.999 334L562.499 333.5V334.5Z" fill="black" fill-opacity="0.4"/>
<path d="M562.5 333.5L558 332.5L562.5 334.5V333.5Z" fill="#D52727"/>
<path d="M562.5 333.5L558 332.5L562.5 334.5V333.5Z" fill="black" fill-opacity="0.4"/>
<path d="M565.5 342.5H562.5L565.5 341.5V342.5Z" fill="black" fill-opacity="0.5"/>
<path d="M565.5 342.5H562.5L565.5 341.5V342.5Z" fill="black" fill-opacity="0.4"/>
<path d="M565.5 341.5L560.5 341L565.5 342.5V341.5Z" fill="#D52727"/>
<path d="M565.5 341.5L560.5 341L565.5 342.5V341.5Z" fill="black" fill-opacity="0.4"/>
<path d="M574.999 316.5L568.999 317.5L574.999 315.5V316.5Z" fill="black" fill-opacity="0.5"/>
<path d="M574.999 316.5L568.999 317.5L574.999 315.5V316.5Z" fill="black" fill-opacity="0.2"/>
<path d="M575 315.5L571 307.5L575 316.5V315.5Z" fill="#D52727"/>
<path d="M575 315.5L571 307.5L575 316.5V315.5Z" fill="black" fill-opacity="0.2"/>
<path d="M571 322.5L565.5 323L571 321.5V322.5Z" fill="black" fill-opacity="0.5"/>
<path d="M571 322.5L565.5 323L571 321.5V322.5Z" fill="black" fill-opacity="0.2"/>
<path d="M571 321.5L565 316.5L571 322.5V321.5Z" fill="#D52727"/>
<path d="M571 321.5L565 316.5L571 322.5V321.5Z" fill="black" fill-opacity="0.2"/>
<path d="M576 330.5L569 331.5L576 329.5V330.5Z" fill="black" fill-opacity="0.5"/>
<path d="M576 330.5L569 331.5L576 329.5V330.5Z" fill="black" fill-opacity="0.2"/>
<path d="M576 329.5L573.5 323.5L576 330.5V329.5Z" fill="#D52727"/>
<path d="M576 329.5L573.5 323.5L576 330.5V329.5Z" fill="black" fill-opacity="0.2"/>
<path d="M572 339.5L567.5 340L572 338.5V339.5Z" fill="black" fill-opacity="0.5"/>
<path d="M572 339.5L567.5 340L572 338.5V339.5Z" fill="black" fill-opacity="0.2"/>
<path d="M572 338.5L566.5 332.5L572 339.5V338.5Z" fill="#D52727"/>
<path d="M572 338.5L566.5 332.5L572 339.5V338.5Z" fill="black" fill-opacity="0.2"/>
<path d="M577 348.5L569 349.5L577 347.5V348.5Z" fill="black" fill-opacity="0.5"/>
<path d="M577 348.5L569 349.5L577 347.5V348.5Z" fill="black" fill-opacity="0.2"/>
<path d="M577 347.5L575 343.5L577 348.5V347.5Z" fill="#D52727"/>
<path d="M577 347.5L575 343.5L577 348.5V347.5Z" fill="black" fill-opacity="0.2"/>
<path d="M584 303H587.5L584 304V303Z" fill="#D52727"/>
<path d="M584 304H578L584 303V304Z" fill="black" fill-opacity="0.5"/>
<path d="M583 320.5L589 320L583 321.5V320.5Z" fill="#D52727"/>
<path d="M583 321.5L578 322.5L583 320.5V321.5Z" fill="black" fill-opacity="0.5"/>
<path d="M584 330H592L584 331V330Z" fill="#D52727"/>
<path d="M584 331L578 332L584 330V331Z" fill="black" fill-opacity="0.5"/>
<path d="M583.001 289L589.501 285.5L583.001 290V289Z" fill="#D52727"/>
<path d="M583.001 290L578.501 291L583.001 289V290Z" fill="black" fill-opacity="0.5"/>
<path d="M590 315L597.5 316.5L590 316V315Z" fill="#D52727"/>
<path d="M590 316L585 317L590 315V316Z" fill="black" fill-opacity="0.5"/>
<path d="M592.001 335H599.001L592.001 336V335Z" fill="#D52727"/>
<path d="M592.001 336L587.001 337L592.001 335V336Z" fill="black" fill-opacity="0.5"/>
<path d="M586 338H588L586 339V338Z" fill="#D52727"/>
<path d="M586 339L579 340L586 338V339Z" fill="black" fill-opacity="0.5"/>
<path d="M593.001 325L597.501 324L593.001 326V325Z" fill="#D52727"/>
<path d="M593.001 326L586.001 327L593.001 325V326Z" fill="black" fill-opacity="0.5"/>
<path d="M592 345H596.5L592 346V345Z" fill="#D52727"/>
<path d="M592 346H586.5L592 345V346Z" fill="black" fill-opacity="0.5"/>
<ellipse cx="808.444" cy="182" rx="55.5556" ry="60" fill="#E1E1E1"/>
<ellipse cx="796" cy="182" rx="58" ry="60" fill="black" fill-opacity="0.2"/>
<ellipse cx="802" cy="182" rx="56" ry="60" fill="#4A4A4A"/>
<ellipse cx="801" cy="182" rx="51" ry="54" fill="#D0D0D0"/>
<ellipse cx="803.11" cy="182" rx="48.8889" ry="54" fill="#FAFAFA"/>
<ellipse cx="801.443" cy="184.4" rx="3.88889" ry="4.8" fill="#444444"/>
<path d="M800.888 150.622L803.11 149.6V176.689L799.777 177.2L800.888 150.622Z" fill="#B95656"/>
<path d="M808.666 183.2L821.999 184.4L821.444 186.8H806.999L808.666 183.2Z" fill="#B95656"/>
<rect x="799.777" y="132.4" width="3.33333" height="12" fill="#444444"/>
<rect x="799.777" y="219.6" width="3.33333" height="12" fill="#444444"/>
<rect x="838.666" y="183.2" width="11.1111" height="3.6" fill="#444444"/>
<rect width="9.18938" height="3.49229" transform="matrix(0.740995 0.67151 -0.61353 0.789671 835.252 203.6)" fill="#C4C4C4"/>
<rect width="9.18938" height="3.49229" transform="matrix(0.740995 -0.67151 0.61353 0.789671 837.555 164.171)" fill="#C4C4C4"/>
<rect width="8" height="3.49229" transform="matrix(0.740995 -0.67151 0.61353 0.789671 766.221 207.771)" fill="#C4C4C4"/>
<path d="M765.913 160L771.998 166.171L770.083 168.929L763.998 162.758L765.913 160Z" fill="#C4C4C4"/>
<rect width="9.42725" height="3.40196" transform="matrix(0.471446 0.881895 -0.848555 0.529107 822.363 217.407)" fill="#C4C4C4"/>
<rect width="9.42725" height="3.40196" transform="matrix(0.471446 -0.881895 0.848555 0.529107 819.777 145.914)" fill="#C4C4C4"/>
<rect width="8" height="3.40196" transform="matrix(0.471446 -0.881895 0.848555 0.529107 780.665 224.313)" fill="#C4C4C4"/>
<rect width="8" height="3.40196" transform="matrix(0.471446 0.881895 -0.848555 0.529107 783.552 139.6)" fill="#C4C4C4"/>
<rect x="757.555" y="183.2" width="10" height="3.6" fill="#444444"/>
<path d="M443.937 54C444.934 65 433.968 90 424 90C414.032 90 403.066 65 404.063 54C404.063 42.9543 412.989 34 424 34C435.011 34 443.937 42.9543 443.937 54Z" fill="#FFEFB5"/>
<path d="M418 100H430V101C430 102.657 428.656 104 427 104H421C419.343 104 418 102.657 418 101V100Z" fill="#989898"/>
<path d="M412.063 80H436.063V97C436.063 98.6569 434.72 100 433.063 100H415.063C413.406 100 412.063 98.6569 412.063 97V80Z" fill="#E7E7E7"/>
<rect x="412.063" y="83" width="24" height="2" fill="#989898"/>
<rect x="412.063" y="88" width="24" height="2" fill="#989898"/>
<rect x="412.063" y="93" width="24" height="2" fill="#989898"/>
<rect x="420" width="8" height="24" rx="4" fill="#FFEFB5"/>
<rect x="452" y="56" width="24" height="8" rx="4" fill="#FFEFB5"/>
<rect x="372" y="56" width="24" height="8" rx="4" fill="#FFEFB5"/>
<rect x="380.534" y="32.5713" width="18" height="8" rx="4" transform="rotate(25 380.534 32.5713)" fill="#FFEFB5"/>
<rect x="451.153" y="40.1782" width="18" height="8" rx="4" transform="rotate(-25 451.153 40.1782)" fill="#FFEFB5"/>
<rect x="438.977" y="25.1602" width="18" height="8" rx="4" transform="rotate(-50 438.977 25.1602)" fill="#FFEFB5"/>
<rect x="397.44" y="11.3716" width="18" height="8" rx="4" transform="rotate(50 397.44 11.3716)" fill="#FFEFB5"/>
<defs>
<linearGradient id="paint0_linear_330_462" x1="222.815" y1="241.71" x2="215.407" y2="241.71" gradientUnits="userSpaceOnUse">
<stop stop-color="#4C4C4C"/>
<stop offset="1"/>
</linearGradient>
<linearGradient id="paint1_linear_330_462" x1="222.815" y1="238.419" x2="215.407" y2="238.419" gradientUnits="userSpaceOnUse">
<stop stop-color="#858585"/>
<stop offset="1" stop-color="#393939"/>
</linearGradient>
<linearGradient id="paint2_linear_330_462" x1="604" y1="376" x2="541.25" y2="376" gradientUnits="userSpaceOnUse">
<stop stop-color="#DF7B7B"/>
<stop offset="1" stop-color="#843434"/>
</linearGradient>
</defs>
</svg>
