<svg width="432" height="306" viewBox="0 0 432 306" fill="none" xmlns="http://www.w3.org/2000/svg">
<path d="M274 284H283V304H274V284Z" fill="#C98159"/>
<path d="M324 284H333V304H324V284Z" fill="#C98159"/>
<rect x="265" y="284" width="9" height="20" fill="#C98159"/>
<rect x="265" y="284" width="9" height="20" fill="black" fill-opacity="0.2"/>
<rect x="315" y="284" width="9" height="20" fill="#A16747"/>
<rect x="200" y="277" width="9" height="27" fill="#C98159"/>
<rect x="200" y="277" width="9" height="27" fill="black" fill-opacity="0.02"/>
<rect x="242" y="277" width="8" height="27" fill="#C98159"/>
<rect x="242" y="277" width="8" height="27" fill="black" fill-opacity="0.04"/>
<rect x="234" y="277" width="8" height="27" fill="#A16747"/>
<rect x="234" y="277" width="8" height="27" fill="black" fill-opacity="0.04"/>
<rect x="192" y="277" width="8" height="27" fill="#A16747"/>
<rect x="192" y="277" width="8" height="27" fill="black" fill-opacity="0.02"/>
<path d="M187 210C187 204.477 191.477 200 197 200H264V284H195C190.582 284 187 280.418 187 276V210Z" fill="#7EE4BF"/>
<rect x="242" y="120" width="96" height="164" rx="10" fill="#65D1AA"/>
<path d="M192 236H274V284H200C195.582 284 192 280.418 192 276V236Z" fill="#7EE4BF"/>
<path d="M269 210C269 204.477 273.477 200 279 200H283V236H269V210Z" fill="#7EE4BF"/>
<path d="M274 210C274 204.477 278.477 200 284 200H338V279C338 281.761 335.761 284 333 284H274V210Z" fill="#82F3CA"/>
<path d="M328 120C333.523 120 338 124.477 338 130V200H328V120Z" fill="#82F3CA"/>
<path d="M192 210C192 204.477 196.477 200 202 200H242V236H192V210Z" fill="#5EBD9B"/>
<line y1="305" x2="432" y2="305" stroke="#2B2B2B" stroke-width="2"/>
<mask id="path-17-inside-1_83_1812" fill="white">
<path d="M61 186C61 178.268 67.268 172 75 172H108V200H75C67.268 200 61 193.732 61 186Z"/>
</mask>
<path d="M61 186C61 178.268 67.268 172 75 172H108V200H75C67.268 200 61 193.732 61 186Z" fill="#CDCDCD"/>
<path d="M58 186C58 176.611 65.6112 169 75 169H108V175H75C68.9249 175 64 179.925 64 186H58ZM108 203H75C65.6112 203 58 195.389 58 186H64C64 192.075 68.9249 197 75 197H108V203ZM75 203C65.6112 203 58 195.389 58 186C58 176.611 65.6112 169 75 169V175C68.9249 175 64 179.925 64 186C64 192.075 68.9249 197 75 197V203ZM108 172V200V172Z" fill="#354A2D" mask="url(#path-17-inside-1_83_1812)"/>
<mask id="path-19-inside-2_83_1812" fill="white">
<path d="M108 172H135V200H108V172Z"/>
</mask>
<path d="M108 172H135V200H108V172Z" fill="#F7F7F7"/>
<path d="M108 175H135V169H108V175ZM135 197H108V203H135V197Z" fill="#5E9D5D" mask="url(#path-19-inside-2_83_1812)"/>
<path d="M84 178H104V180H84V178Z" fill="#9E9E9E"/>
<path d="M71 178H81V180H71V178Z" fill="#9E9E9E"/>
<path d="M71 185H101V187H71V185Z" fill="#9E9E9E"/>
<path d="M79 192H104V194H79V192Z" fill="#9E9E9E"/>
<path d="M111 178H127V180H111V178Z" fill="#D7D7D7"/>
<path d="M117 185H132V187H117V185Z" fill="#D7D7D7"/>
<path d="M111 192H134V194H111V192Z" fill="#D7D7D7"/>
<path d="M129 178H134V180H129V178Z" fill="#D7D7D7"/>
<path d="M111 185H113V187H111V185Z" fill="#D7D7D7"/>
<mask id="path-30-inside-3_83_1812" fill="white">
<path d="M58 162C58 156.477 62.4772 152 68 152H113V172H68C62.4772 172 58 167.523 58 162Z"/>
</mask>
<path d="M58 162C58 156.477 62.4772 152 68 152H113V172H68C62.4772 172 58 167.523 58 162Z" fill="#CDCDCD"/>
<path d="M55 162C55 154.82 60.8203 149 68 149H113V155H68C64.134 155 61 158.134 61 162H55ZM113 175H68C60.8203 175 55 169.18 55 162H61C61 165.866 64.134 169 68 169H113V175ZM68 175C60.8203 175 55 169.18 55 162C55 154.82 60.8203 149 68 149V155C64.134 155 61 158.134 61 162C61 165.866 64.134 169 68 169V175ZM113 152V172V152Z" fill="#5D0011" mask="url(#path-30-inside-3_83_1812)"/>
<mask id="path-32-inside-4_83_1812" fill="white">
<path d="M112 152H139V172H112V152Z"/>
</mask>
<path d="M112 152H139V172H112V152Z" fill="#F7F7F7"/>
<path d="M112 155H139V149H112V155ZM139 169H112V175H139V169Z" fill="#B42640" mask="url(#path-32-inside-4_83_1812)"/>
<path d="M76 165H88V167H76V165Z" fill="#9E9E9E"/>
<path d="M97 164H108V166H97V164Z" fill="#9E9E9E"/>
<path d="M78 158H110V160H78V158Z" fill="#9E9E9E"/>
<path d="M116 158H137V160H116V158Z" fill="#D7D7D7"/>
<path d="M126 164H137V166H126V164Z" fill="#D7D7D7"/>
<path d="M116 164H127V166H116V164Z" fill="#D7D7D7"/>
<mask id="path-40-inside-5_83_1812" fill="white">
<path d="M70 142C70 136.477 74.4772 132 80 132H109V152H80C74.4772 152 70 147.523 70 142Z"/>
</mask>
<path d="M70 142C70 136.477 74.4772 132 80 132H109V152H80C74.4772 152 70 147.523 70 142Z" fill="#CDCDCD"/>
<path d="M67 142C67 134.82 72.8203 129 80 129H109V135H80C76.134 135 73 138.134 73 142H67ZM109 155H80C72.8203 155 67 149.18 67 142H73C73 145.866 76.134 149 80 149H109V155ZM80 155C72.8203 155 67 149.18 67 142C67 134.82 72.8203 129 80 129V135C76.134 135 73 138.134 73 142C73 145.866 76.134 149 80 149V155ZM109 132V152V132Z" fill="#00145D" mask="url(#path-40-inside-5_83_1812)"/>
<mask id="path-42-inside-6_83_1812" fill="white">
<path d="M109 132H127V152H109V132Z"/>
</mask>
<path d="M109 132H127V152H109V132Z" fill="#F7F7F7"/>
<path d="M109 135H127V129H109V135ZM127 149H109V155H127V149Z" fill="#526195" mask="url(#path-42-inside-6_83_1812)"/>
<path d="M82 138H93V140H82V138Z" fill="#9E9E9E"/>
<path d="M97 139H105V141H97V139Z" fill="#9E9E9E"/>
<path d="M82 144H103V146H82V144Z" fill="#9E9E9E"/>
<path d="M111 138H125V140H111V138Z" fill="#D7D7D7"/>
<path d="M118 144H124V146H118V144Z" fill="#D7D7D7"/>
<path d="M112 143H117V145H112V143Z" fill="#D7D7D7"/>
<path d="M101.51 73.0422C101.799 71.9604 102.779 71.2078 103.899 71.2078C105.486 71.2078 106.662 72.6832 106.308 74.231L101.809 93.8968C101.278 96.2177 101.332 98.6343 101.967 100.929L105.987 115.457C106.496 117.298 105.111 119.119 103.2 119.119C101.9 119.119 100.76 118.251 100.413 116.999L96.4495 102.672C95.5004 99.2414 95.4839 95.6198 96.4018 92.1809L101.51 73.0422Z" fill="#D9D9D9"/>
<path d="M100.086 71.9598C100.309 71.0103 101.294 70.452 102.223 70.748C103.043 71.009 103.531 71.8484 103.352 72.6895L98.9925 93.2596C98.448 95.8285 98.4548 98.4837 99.0123 101.05L102.079 115.165C102.319 116.271 101.697 117.382 100.629 117.755C99.3336 118.207 97.94 117.399 97.6886 116.051L94.7791 100.443C94.3751 98.2759 94.4269 96.0486 94.931 93.9027L100.086 71.9598Z" fill="#9B9B9B"/>
<path fill-rule="evenodd" clip-rule="evenodd" d="M85.4815 129.759H122.519C121.761 120.141 113.76 112.574 104 112.574C94.2404 112.574 86.2385 120.141 85.4815 129.759ZM122.577 131.216V131.289C122.577 131.277 122.577 131.265 122.577 131.253C122.577 131.241 122.577 131.229 122.577 131.216Z" fill="#9B9B9B"/>
<path d="M122.563 131.253C112.5 131.253 115.797 131.253 108 131.253C100.203 131.253 95.4819 132.736 95.4819 131.253C95.4819 122.287 96.963 114.815 105.111 112.574C113.259 112.2 123.259 121.166 122.563 131.253Z" fill="#D9D9D9"/>
<mask id="path-54-outside-7_83_1812" maskUnits="userSpaceOnUse" x="95.8521" y="128.759" width="29" height="4" fill="black">
<rect fill="white" x="95.8521" y="128.759" width="29" height="4"/>
<path d="M95.8521 129.759H122.879C123.498 129.759 124 130.26 124 130.879C124 131.498 123.498 132 122.879 132H95.8521V129.759Z"/>
</mask>
<path d="M95.8521 129.759H122.879C123.498 129.759 124 130.26 124 130.879C124 131.498 123.498 132 122.879 132H95.8521V129.759Z" fill="#D9D9D9"/>
<path d="M95.8521 129.259H123.129C123.887 129.259 124.5 129.872 124.5 130.629L123.5 130.879C123.5 130.536 123.222 130.259 122.879 130.259H95.8521V129.259ZM124 132H95.8521H124ZM95.8521 132V129.759V132ZM123.129 129.259C123.887 129.259 124.5 129.872 124.5 130.629C124.5 131.386 123.887 132 123.129 132H122.879C123.222 132 123.5 131.498 123.5 130.879C123.5 130.536 123.222 130.259 122.879 130.259L123.129 129.259Z" fill="#7F7D7D" mask="url(#path-54-outside-7_83_1812)"/>
<mask id="path-56-outside-8_83_1812" maskUnits="userSpaceOnUse" x="83" y="128.759" width="13" height="4" fill="black">
<rect fill="white" x="83" y="128.759" width="13" height="4"/>
<path d="M84 130.879C84 130.26 84.5018 129.759 85.1207 129.759H95.8519V132H85.1207C84.5018 132 84 131.498 84 130.879Z"/>
</mask>
<path d="M84 130.879C84 130.26 84.5018 129.759 85.1207 129.759H95.8519V132H85.1207C84.5018 132 84 131.498 84 130.879Z" fill="#9B9B9B"/>
<path d="M83.5 130.629C83.5 129.872 84.1137 129.259 84.8707 129.259H95.8519V130.259H85.1207C84.7779 130.259 84.5 130.536 84.5 130.879L83.5 130.629ZM95.8519 132H84H95.8519ZM84.8707 132C84.1137 132 83.5 131.386 83.5 130.629C83.5 129.872 84.1137 129.259 84.8707 129.259L85.1207 130.259C84.7779 130.259 84.5 130.536 84.5 130.879C84.5 131.498 84.7779 132 85.1207 132H84.8707ZM95.8519 129.759V132V129.759Z" fill="#626262" mask="url(#path-56-outside-8_83_1812)"/>
<path d="M108.444 119.209H111.407V121.019C111.407 121.837 110.744 122.5 109.926 122.5C109.108 122.5 108.444 121.837 108.444 121.019V119.209Z" fill="url(#paint0_linear_83_1812)"/>
<ellipse cx="109.926" cy="119.209" rx="1.48148" ry="0.658207" fill="url(#paint1_linear_83_1812)"/>
<path d="M125.594 77.2471C120.594 87.8379 117.594 89.3509 114.094 92.377C114.094 87.838 109.863 78.0342 113.207 70.362C116.551 62.6898 127.094 58.5869 131.094 58.0826C131.094 61.1085 129.166 69.6802 125.594 77.2471Z" fill="#9B9B9B"/>
<ellipse cx="118.094" cy="73.2124" rx="10" ry="10.0866" fill="#FFEFB5"/>
<path d="M92.4 58.9837C94.8299 53.9812 100.842 51.9233 105.827 54.3873L110.807 56.8482C115.793 59.3122 117.865 65.365 115.435 70.3675C113.005 75.37 106.993 77.4279 102.008 74.9639L97.0278 72.5029C92.042 70.039 89.97 63.9862 92.4 58.9837Z" fill="#D9D9D9"/>
<path d="M103.834 57.3722L131.094 58.0826L126.394 63.5259C120.63 70.2006 116.735 78.2987 115.103 86.9963L114.094 92.3769L97.1984 70.8726L103.834 57.3722Z" fill="#D9D9D9"/>
<rect x="296.5" y="209" width="14.16" height="95" fill="#C98159"/>
<rect x="44.275" y="209" width="13.275" height="95" fill="#C98159"/>
<rect x="370.84" y="209" width="14.16" height="95" fill="#C98159"/>
<rect x="119.5" y="209" width="13.275" height="95" fill="#B97752"/>
<rect x="282.34" y="209" width="14.16" height="95" fill="#A16747"/>
<rect x="31" y="209" width="13.275" height="95" fill="#A16747"/>
<rect x="356.68" y="209" width="14.16" height="95" fill="#A16747"/>
<rect x="106.225" y="209" width="13.275" height="95" fill="#945F41"/>
<rect x="31" y="200" width="265.5" height="20" fill="#A16747"/>
<rect x="296.5" y="200" width="88.5" height="20" fill="#C98159"/>
<path d="M218.541 170.713H218.041V171.213V199.246V199.746H218.541H251H251.5V199.246V189.656V189.376L251.262 189.23L241.788 183.4L235.212 170.979L235.071 170.713H234.77H218.541Z" fill="#EEEEEE" stroke="#BDBBBB"/>
<rect x="160.5" y="170.713" width="60.0164" height="29.0328" rx="2.5" fill="#B1B1B1" stroke="#727272"/>
<mask id="path-76-inside-9_83_1812" fill="white">
<path d="M163.951 185.967H175.754V193.344H163.951V185.967Z"/>
</mask>
<path d="M163.951 185.967H175.754V193.344H163.951V185.967Z" fill="#949494"/>
<path d="M163.951 185.967V185.467H163.451V185.967H163.951ZM163.951 186.467H175.754V185.467H163.951V186.467ZM164.451 193.344V185.967H163.451V193.344H164.451Z" fill="#727272" mask="url(#path-76-inside-9_83_1812)"/>
<rect x="206.738" y="175.639" width="1.47541" height="8.85246" rx="0.737705" fill="#818181"/>
<rect x="209.689" y="175.639" width="1.47541" height="8.85246" rx="0.737705" fill="#818181"/>
<rect x="212.64" y="175.639" width="1.47541" height="8.85246" rx="0.737705" fill="#818181"/>
<rect x="215.59" y="175.639" width="1.47541" height="8.85246" rx="0.737705" fill="#818181"/>
<rect x="219.516" y="124.975" width="17.2295" height="45.2623" fill="#EEEEEE" stroke="#BDBBBB"/>
<rect x="160.5" y="124.975" width="60.0164" height="45.2623" rx="2.5" fill="#B1B1B1" stroke="#727272"/>
<mask id="path-84-inside-10_83_1812" fill="white">
<path d="M202.311 138.754H214.115V154.984H202.311V138.754Z"/>
</mask>
<path d="M202.311 138.754H214.115V154.984H202.311V138.754Z" fill="#B7B7B7"/>
<path d="M202.311 138.754V137.754H201.311V138.754H202.311ZM214.115 138.754H215.115V137.754H214.115V138.754ZM214.115 154.984V155.984H215.115V154.984H214.115ZM202.311 154.984H201.311V155.984H202.311V154.984ZM202.311 139.754H214.115V137.754H202.311V139.754ZM213.115 138.754V154.984H215.115V138.754H213.115ZM214.115 153.984H202.311V155.984H214.115V153.984ZM203.311 154.984V138.754H201.311V154.984H203.311Z" fill="#727272" mask="url(#path-84-inside-10_83_1812)"/>
<rect x="165.426" y="132.852" width="1.47541" height="13.2787" rx="0.737705" fill="#818181"/>
<rect x="168.377" y="132.852" width="1.47541" height="13.2787" rx="0.737705" fill="#818181"/>
<rect x="171.328" y="132.852" width="1.47541" height="13.2787" rx="0.737705" fill="#818181"/>
<rect x="174.279" y="132.852" width="1.47541" height="13.2787" rx="0.737705" fill="#818181"/>
<mask id="path-90-inside-11_83_1812" fill="white">
<path d="M168.377 160.885H209.689V168.262H168.377V160.885Z"/>
</mask>
<path d="M168.377 160.885H209.689V168.262H168.377V160.885Z" fill="#949494"/>
<path d="M168.377 160.885V160.385H167.877V160.885H168.377ZM168.377 161.385H209.689V160.385H168.377V161.385ZM168.877 168.262V160.885H167.877V168.262H168.877Z" fill="#727272" mask="url(#path-90-inside-11_83_1812)"/>
<rect x="203.787" y="141.705" width="5.90164" height="10.3279" fill="#B7B7B7"/>
<path d="M203.787 140.229H212.639L211.164 141.705H204.525L203.787 140.229Z" fill="#A8A8A8"/>
<path d="M203.787 153.508H212.639L211.164 152.033H204.525L203.787 153.508Z" fill="#A8A8A8"/>
<path d="M203.787 140.229L204.525 141.705V152.033L203.787 153.508V140.229Z" fill="#5C5C5C"/>
<path d="M212.64 140.229L209.689 141.705V152.033L212.64 153.508V140.229Z" fill="#D9D9D9"/>
<mask id="path-97-inside-12_83_1812" fill="white">
<path d="M234.77 124H237.721V171.213H234.77V124Z"/>
</mask>
<path d="M234.77 124H237.721V171.213H234.77V124Z" fill="#C8C8B4"/>
<path d="M237.721 124H238.721V123H237.721V124ZM237.721 171.213V172.213H238.721V171.213H237.721ZM234.77 125H237.721V123H234.77V125ZM236.721 124V171.213H238.721V124H236.721ZM237.721 170.213H234.77V172.213H237.721V170.213Z" fill="#B2B29B" mask="url(#path-97-inside-12_83_1812)"/>
<path d="M280.141 151.107C280.069 145.653 285.051 141.525 290.396 142.609C294.384 143.419 297.25 146.924 297.25 150.993V153.75L297.75 162.5V174L297.577 177.984C297.394 182.187 293.934 185.5 289.727 185.5C286.195 185.5 283.097 183.143 282.155 179.74L280.138 172.457C279.551 170.337 279.362 168.127 279.581 165.939L280.25 159.25L280.141 151.107Z" fill="#1C7B0D"/>
<path d="M283.528 147.412C283.497 143.769 287.049 141.169 290.512 142.3C292.705 143.016 294.189 145.061 294.189 147.368V153.25L294.5 162V173.5L294.311 180.504C294.243 183.006 292.195 185 289.691 185C287.441 185 285.518 183.38 285.137 181.163L283.341 170.728C283.114 169.414 283.042 168.078 283.125 166.746L283.622 158.75L283.528 147.412Z" fill="#2C921B"/>
<path d="M288.25 145C287.936 143.012 290 141.5 291.801 142.401L292 142.5C295.944 144.624 298.246 148.891 297.855 153.354L297.689 155.25L298 164L297.689 175.75V182.804C297.689 185.121 295.81 187 293.493 187C291.176 187 289.297 185.121 289.297 182.804V172.069C289.297 171.357 289.246 170.646 289.145 169.942L288.276 163.908C287.927 161.479 287.876 159.015 288.127 156.573L288.454 153.387C288.651 151.467 288.662 149.532 288.487 147.61L288.25 145Z" fill="#35BD1E"/>
<path d="M277 175.5H302V200.5H277V175.5Z" fill="url(#paint2_linear_83_1812)"/>
<path d="M296.25 153L299.75 152.5L296.25 153.5V153Z" fill="#D52727"/>
<path d="M296.25 153.5L293.5 153.75L296.25 153V153.5Z" fill="black" fill-opacity="0.5"/>
<path d="M291.249 155.5L294.999 154.5L291.249 156V155.5Z" fill="#D52727"/>
<path d="M291.249 156L287.999 156.25L291.249 155.5V156Z" fill="black" fill-opacity="0.5"/>
<path d="M294 148.5L299.5 148L294 149V148.5Z" fill="#D52727"/>
<path d="M294 149L291.5 149.5L294 148.5V149Z" fill="black" fill-opacity="0.5"/>
<path d="M286.5 145.75L284 146.25L286.5 145.25V145.75Z" fill="black" fill-opacity="0.5"/>
<path d="M286.5 145.75L284 146.25L286.5 145.25V145.75Z" fill="black" fill-opacity="0.2"/>
<path d="M286.5 145.25L284 141L286.5 145.75V145.25Z" fill="#D52727"/>
<path d="M286.5 145.25L284 141L286.5 145.75V145.25Z" fill="black" fill-opacity="0.2"/>
<path d="M288 150.75L284.75 151.25L288 150.25V150.75Z" fill="black" fill-opacity="0.5"/>
<path d="M288 150.75L284.75 151.25L288 150.25V150.75Z" fill="black" fill-opacity="0.2"/>
<path d="M288 150.25L286 146L288 150.75V150.25Z" fill="#D52727"/>
<path d="M288 150.25L286 146L288 150.75V150.25Z" fill="black" fill-opacity="0.2"/>
<path d="M286 153.75L283.75 154.75L286 153.25V153.75Z" fill="black" fill-opacity="0.5"/>
<path d="M286 153.75L283.75 154.75L286 153.25V153.75Z" fill="black" fill-opacity="0.2"/>
<path d="M286 153.25L282.75 150.75L286 153.75V153.25Z" fill="#D52727"/>
<path d="M286 153.25L282.75 150.75L286 153.75V153.25Z" fill="black" fill-opacity="0.2"/>
<path d="M282.25 147.75L281 147.5L282.25 147.25V147.75Z" fill="black" fill-opacity="0.5"/>
<path d="M282.25 147.75L281 147.5L282.25 147.25V147.75Z" fill="black" fill-opacity="0.4"/>
<path d="M282.25 147.25L280.5 146.5L282.25 147.75V147.25Z" fill="#D52727"/>
<path d="M282.25 147.25L280.5 146.5L282.25 147.75V147.25Z" fill="black" fill-opacity="0.4"/>
<path d="M281.25 151.25H280.25L281.25 150.75V151.25Z" fill="black" fill-opacity="0.5"/>
<path d="M281.25 151.25H280.25L281.25 150.75V151.25Z" fill="black" fill-opacity="0.4"/>
<path d="M281.25 150.75L280 150.5L281.25 151.25V150.75Z" fill="#D52727"/>
<path d="M281.25 150.75L280 150.5L281.25 151.25V150.75Z" fill="black" fill-opacity="0.4"/>
<path d="M282.25 155.25L281.25 155L282.25 154.75V155.25Z" fill="black" fill-opacity="0.5"/>
<path d="M282.25 155.25L281.25 155L282.25 154.75V155.25Z" fill="black" fill-opacity="0.4"/>
<path d="M282.25 154.75L281 154.25L282.25 155.25V154.75Z" fill="#D52727"/>
<path d="M282.25 154.75L281 154.25L282.25 155.25V154.75Z" fill="black" fill-opacity="0.4"/>
<path d="M281.749 159.25H280.749L281.749 158.75V159.25Z" fill="black" fill-opacity="0.5"/>
<path d="M281.749 159.25H280.749L281.749 158.75V159.25Z" fill="black" fill-opacity="0.4"/>
<path d="M281.75 158.75H280.25L281.75 159.25V158.75Z" fill="#D52727"/>
<path d="M281.75 158.75H280.25L281.75 159.25V158.75Z" fill="black" fill-opacity="0.4"/>
<path d="M282.25 163H281L282.25 162.5V163Z" fill="black" fill-opacity="0.5"/>
<path d="M282.25 163H281L282.25 162.5V163Z" fill="black" fill-opacity="0.4"/>
<path d="M282.25 162.5H280.25L282.25 163V162.5Z" fill="#D52727"/>
<path d="M282.25 162.5H280.25L282.25 163V162.5Z" fill="black" fill-opacity="0.4"/>
<path d="M281.25 167.25L280 167L281.25 166.75V167.25Z" fill="black" fill-opacity="0.5"/>
<path d="M281.25 167.25L280 167L281.25 166.75V167.25Z" fill="black" fill-opacity="0.4"/>
<path d="M281.25 166.75L279 166.25L281.25 167.25V166.75Z" fill="#D52727"/>
<path d="M281.25 166.75L279 166.25L281.25 167.25V166.75Z" fill="black" fill-opacity="0.4"/>
<path d="M282.75 171.25H281.25L282.75 170.75V171.25Z" fill="black" fill-opacity="0.5"/>
<path d="M282.75 171.25H281.25L282.75 170.75V171.25Z" fill="black" fill-opacity="0.4"/>
<path d="M282.75 170.75L280.25 170.5L282.75 171.25V170.75Z" fill="#D52727"/>
<path d="M282.75 170.75L280.25 170.5L282.75 171.25V170.75Z" fill="black" fill-opacity="0.4"/>
<path d="M287.5 158.25L284.5 158.75L287.5 157.75V158.25Z" fill="black" fill-opacity="0.5"/>
<path d="M287.5 158.25L284.5 158.75L287.5 157.75V158.25Z" fill="black" fill-opacity="0.2"/>
<path d="M287.5 157.75L285.5 153.75L287.5 158.25V157.75Z" fill="#D52727"/>
<path d="M287.5 157.75L285.5 153.75L287.5 158.25V157.75Z" fill="black" fill-opacity="0.2"/>
<path d="M285.5 161.25L282.75 161.5L285.5 160.75V161.25Z" fill="black" fill-opacity="0.5"/>
<path d="M285.5 161.25L282.75 161.5L285.5 160.75V161.25Z" fill="black" fill-opacity="0.2"/>
<path d="M285.5 160.75L282.5 158.25L285.5 161.25V160.75Z" fill="#D52727"/>
<path d="M285.5 160.75L282.5 158.25L285.5 161.25V160.75Z" fill="black" fill-opacity="0.2"/>
<path d="M288 165.25L284.5 165.75L288 164.75V165.25Z" fill="black" fill-opacity="0.5"/>
<path d="M288 165.25L284.5 165.75L288 164.75V165.25Z" fill="black" fill-opacity="0.2"/>
<path d="M288 164.75L286.75 161.75L288 165.25V164.75Z" fill="#D52727"/>
<path d="M288 164.75L286.75 161.75L288 165.25V164.75Z" fill="black" fill-opacity="0.2"/>
<path d="M286 169.75L283.75 170L286 169.25V169.75Z" fill="black" fill-opacity="0.5"/>
<path d="M286 169.75L283.75 170L286 169.25V169.75Z" fill="black" fill-opacity="0.2"/>
<path d="M286 169.25L283.25 166.25L286 169.75V169.25Z" fill="#D52727"/>
<path d="M286 169.25L283.25 166.25L286 169.75V169.25Z" fill="black" fill-opacity="0.2"/>
<path d="M288.5 174.25L284.5 174.75L288.5 173.75V174.25Z" fill="black" fill-opacity="0.5"/>
<path d="M288.5 174.25L284.5 174.75L288.5 173.75V174.25Z" fill="black" fill-opacity="0.2"/>
<path d="M288.5 173.75L287.5 171.75L288.5 174.25V173.75Z" fill="#D52727"/>
<path d="M288.5 173.75L287.5 171.75L288.5 174.25V173.75Z" fill="black" fill-opacity="0.2"/>
<path d="M292 151.5H293.75L292 152V151.5Z" fill="#D52727"/>
<path d="M292 152H289L292 151.5V152Z" fill="black" fill-opacity="0.5"/>
<path d="M291.5 160.25L294.5 160L291.5 160.75V160.25Z" fill="#D52727"/>
<path d="M291.5 160.75L289 161.25L291.5 160.25V160.75Z" fill="black" fill-opacity="0.5"/>
<path d="M292 165H296L292 165.5V165Z" fill="#D52727"/>
<path d="M292 165.5L289 166L292 165V165.5Z" fill="black" fill-opacity="0.5"/>
<path d="M291.5 144.5L294.75 142.75L291.5 145V144.5Z" fill="#D52727"/>
<path d="M291.5 145L289.25 145.5L291.5 144.5V145Z" fill="black" fill-opacity="0.5"/>
<path d="M295 157.5L298.75 158.25L295 158V157.5Z" fill="#D52727"/>
<path d="M295 158L292.5 158.5L295 157.5V158Z" fill="black" fill-opacity="0.5"/>
<path d="M296 167.5H299.5L296 168V167.5Z" fill="#D52727"/>
<path d="M296 168L293.5 168.5L296 167.5V168Z" fill="black" fill-opacity="0.5"/>
<path d="M293 169H294L293 169.5V169Z" fill="#D52727"/>
<path d="M293 169.5L289.5 170L293 169V169.5Z" fill="black" fill-opacity="0.5"/>
<path d="M296.5 162.5L298.75 162L296.5 163V162.5Z" fill="#D52727"/>
<path d="M296.5 163L293 163.5L296.5 162.5V163Z" fill="black" fill-opacity="0.5"/>
<path d="M296 172.5H298.25L296 173V172.5Z" fill="#D52727"/>
<path d="M296 173H293.25L296 172.5V173Z" fill="black" fill-opacity="0.5"/>
<ellipse cx="404.222" cy="91" rx="27.7778" ry="30" fill="#E1E1E1"/>
<ellipse cx="398" cy="91" rx="29" ry="30" fill="black" fill-opacity="0.2"/>
<ellipse cx="401" cy="91" rx="28" ry="30" fill="#4A4A4A"/>
<ellipse cx="400.5" cy="91" rx="25.5" ry="27" fill="#D0D0D0"/>
<ellipse cx="401.555" cy="91" rx="24.4444" ry="27" fill="#FAFAFA"/>
<ellipse cx="400.722" cy="92.2" rx="1.94444" ry="2.4" fill="#444444"/>
<path d="M400.444 75.3111L401.555 74.8V88.3444L399.889 88.6L400.444 75.3111Z" fill="#B95656"/>
<path d="M404.333 91.6L411 92.2L410.722 93.4H403.5L404.333 91.6Z" fill="#B95656"/>
<rect x="399.889" y="66.2" width="1.66667" height="6" fill="#444444"/>
<rect x="399.889" y="109.8" width="1.66667" height="6" fill="#444444"/>
<rect x="419.333" y="91.6" width="5.55556" height="1.8" fill="#444444"/>
<rect width="4.59469" height="1.74614" transform="matrix(0.740995 0.67151 -0.61353 0.789671 417.626 101.8)" fill="#C4C4C4"/>
<rect width="4.59469" height="1.74614" transform="matrix(0.740995 -0.67151 0.61353 0.789671 418.777 82.0854)" fill="#C4C4C4"/>
<rect width="4" height="1.74614" transform="matrix(0.740995 -0.67151 0.61353 0.789671 383.11 103.885)" fill="#C4C4C4"/>
<path d="M382.956 80L385.999 83.0854L385.042 84.4643L381.999 81.3789L382.956 80Z" fill="#C4C4C4"/>
<rect width="4.71363" height="1.70098" transform="matrix(0.471446 0.881895 -0.848555 0.529107 411.181 108.704)" fill="#C4C4C4"/>
<rect width="4.71363" height="1.70098" transform="matrix(0.471446 -0.881895 0.848555 0.529107 409.888 72.9569)" fill="#C4C4C4"/>
<rect width="4" height="1.70098" transform="matrix(0.471446 -0.881895 0.848555 0.529107 390.332 112.157)" fill="#C4C4C4"/>
<rect width="4" height="1.70098" transform="matrix(0.471446 0.881895 -0.848555 0.529107 391.776 69.8)" fill="#C4C4C4"/>
<rect x="378.777" y="91.6" width="5" height="1.8" fill="#444444"/>
<path d="M221.968 27C222.467 32.5 216.984 45 212 45C207.016 45 201.533 32.5 202.032 27C202.032 21.4772 206.495 17 212 17C217.505 17 221.968 21.4772 221.968 27Z" fill="#FFEFB5"/>
<path d="M209 50H215C215 51.1046 214.104 52 213 52H211C209.895 52 209 51.1046 209 50Z" fill="#989898"/>
<path d="M206.032 40H218.032V47C218.032 48.6569 216.688 50 215.032 50H209.032C207.375 50 206.032 48.6569 206.032 47V40Z" fill="#E7E7E7"/>
<rect x="206.031" y="41.5" width="12" height="1" fill="#989898"/>
<rect x="206.031" y="44" width="12" height="1" fill="#989898"/>
<rect x="206.031" y="46.5" width="12" height="1" fill="#989898"/>
<rect x="210" width="4" height="12" rx="2" fill="#FFEFB5"/>
<rect x="226" y="28" width="12" height="4" rx="2" fill="#FFEFB5"/>
<rect x="186" y="28" width="12" height="4" rx="2" fill="#FFEFB5"/>
<rect x="190.267" y="16.2856" width="9" height="4" rx="2" transform="rotate(25 190.267 16.2856)" fill="#FFEFB5"/>
<rect x="225.577" y="20.0892" width="9" height="4" rx="2" transform="rotate(-25 225.577 20.0892)" fill="#FFEFB5"/>
<rect x="219.488" y="12.5801" width="9" height="4" rx="2" transform="rotate(-50 219.488 12.5801)" fill="#FFEFB5"/>
<rect x="198.72" y="5.68573" width="9" height="4" rx="2" transform="rotate(50 198.72 5.68573)" fill="#FFEFB5"/>
<defs>
<linearGradient id="paint0_linear_83_1812" x1="111.407" y1="120.855" x2="107.704" y2="120.855" gradientUnits="userSpaceOnUse">
<stop stop-color="#4C4C4C"/>
<stop offset="1"/>
</linearGradient>
<linearGradient id="paint1_linear_83_1812" x1="111.407" y1="119.209" x2="107.704" y2="119.209" gradientUnits="userSpaceOnUse">
<stop stop-color="#858585"/>
<stop offset="1" stop-color="#393939"/>
</linearGradient>
<linearGradient id="paint2_linear_83_1812" x1="302" y1="188" x2="270.625" y2="188" gradientUnits="userSpaceOnUse">
<stop stop-color="#DF7B7B"/>
<stop offset="1" stop-color="#843434"/>
</linearGradient>
</defs>
</svg>
