<svg width="648" height="459" viewBox="0 0 648 459" fill="none" xmlns="http://www.w3.org/2000/svg">
<path d="M411 426H424.5V456H411V426Z" fill="#C98159"/>
<path d="M486 426H499.5V456H486V426Z" fill="#C98159"/>
<rect x="397.5" y="426" width="13.5" height="30" fill="#C98159"/>
<rect x="397.5" y="426" width="13.5" height="30" fill="black" fill-opacity="0.2"/>
<rect x="472.5" y="426" width="13.5" height="30" fill="#A16747"/>
<rect x="300" y="415.5" width="13.5" height="40.5" fill="#C98159"/>
<rect x="300" y="415.5" width="13.5" height="40.5" fill="black" fill-opacity="0.02"/>
<rect x="363" y="415.5" width="12" height="40.5" fill="#C98159"/>
<rect x="363" y="415.5" width="12" height="40.5" fill="black" fill-opacity="0.04"/>
<rect x="351" y="415.5" width="12" height="40.5" fill="#A16747"/>
<rect x="351" y="415.5" width="12" height="40.5" fill="black" fill-opacity="0.04"/>
<rect x="288" y="415.5" width="12" height="40.5" fill="#A16747"/>
<rect x="288" y="415.5" width="12" height="40.5" fill="black" fill-opacity="0.02"/>
<path d="M280.5 310C280.5 304.477 284.977 300 290.5 300H396V426H288.5C284.082 426 280.5 422.418 280.5 418V310Z" fill="#7EE4BF"/>
<rect x="363" y="180" width="144" height="246" rx="10" fill="#65D1AA"/>
<path d="M288 354H411V426H296C291.582 426 288 422.418 288 418V354Z" fill="#7EE4BF"/>
<path d="M403.5 310C403.5 304.477 407.977 300 413.5 300H424.5V354H403.5V310Z" fill="#7EE4BF"/>
<path d="M411 310C411 304.477 415.477 300 421 300H507V421C507 423.761 504.761 426 502 426H411V310Z" fill="#82F3CA"/>
<path d="M492 180H497C502.523 180 507 184.477 507 190V300H492V180Z" fill="#82F3CA"/>
<path d="M288 310C288 304.477 292.477 300 298 300H363V354H288V310Z" fill="#5EBD9B"/>
<line y1="458" x2="648" y2="458" stroke="#2B2B2B" stroke-width="2"/>
<mask id="path-17-inside-1_349_221" fill="white">
<path d="M91.5 278C91.5 266.954 100.454 258 111.5 258H162V300H111.5C100.454 300 91.5 291.046 91.5 280V278Z"/>
</mask>
<path d="M91.5 278C91.5 266.954 100.454 258 111.5 258H162V300H111.5C100.454 300 91.5 291.046 91.5 280V278Z" fill="#CDCDCD"/>
<path d="M88.5 278C88.5 265.297 98.7975 255 111.5 255H162V261H111.5C102.111 261 94.5 268.611 94.5 278H88.5ZM162 303H111.5C98.7975 303 88.5 292.703 88.5 280H94.5C94.5 289.389 102.111 297 111.5 297H162V303ZM111.5 303C98.7975 303 88.5 292.703 88.5 280V278C88.5 265.297 98.7975 255 111.5 255V261C102.111 261 94.5 268.611 94.5 278V280C94.5 289.389 102.111 297 111.5 297V303ZM162 258V300V258Z" fill="#354A2D" mask="url(#path-17-inside-1_349_221)"/>
<mask id="path-19-inside-2_349_221" fill="white">
<path d="M162 258H202.5V300H162V258Z"/>
</mask>
<path d="M162 258H202.5V300H162V258Z" fill="#F7F7F7"/>
<path d="M162 261H202.5V255H162V261ZM202.5 297H162V303H202.5V297Z" fill="#5E9D5D" mask="url(#path-19-inside-2_349_221)"/>
<path d="M126 267H156V270H126V267Z" fill="#9E9E9E"/>
<path d="M106.5 267H121.5V270H106.5V267Z" fill="#9E9E9E"/>
<path d="M106.5 277.5H151.5V280.5H106.5V277.5Z" fill="#9E9E9E"/>
<path d="M118.5 288H156V291H118.5V288Z" fill="#9E9E9E"/>
<path d="M166.5 267H190.5V270H166.5V267Z" fill="#D7D7D7"/>
<path d="M175.5 277.5H198V280.5H175.5V277.5Z" fill="#D7D7D7"/>
<path d="M166.5 288H201V291H166.5V288Z" fill="#D7D7D7"/>
<path d="M193.5 267H201V270H193.5V267Z" fill="#D7D7D7"/>
<path d="M166.5 277.5H169.5V280.5H166.5V277.5Z" fill="#D7D7D7"/>
<mask id="path-30-inside-3_349_221" fill="white">
<path d="M87 243C87 234.716 93.7157 228 102 228H169.5V258H102C93.7157 258 87 251.284 87 243V243Z"/>
</mask>
<path d="M87 243C87 234.716 93.7157 228 102 228H169.5V258H102C93.7157 258 87 251.284 87 243V243Z" fill="#CDCDCD"/>
<path d="M84 243C84 233.059 92.0589 225 102 225H169.5V231H102C95.3726 231 90 236.373 90 243H84ZM169.5 261H102C92.0589 261 84 252.941 84 243H90C90 249.627 95.3726 255 102 255H169.5V261ZM102 261C92.0589 261 84 252.941 84 243C84 233.059 92.0589 225 102 225V231C95.3726 231 90 236.373 90 243C90 249.627 95.3726 255 102 255V261ZM169.5 228V258V228Z" fill="#5D0011" mask="url(#path-30-inside-3_349_221)"/>
<mask id="path-32-inside-4_349_221" fill="white">
<path d="M168 228H208.5V258H168V228Z"/>
</mask>
<path d="M168 228H208.5V258H168V228Z" fill="#F7F7F7"/>
<path d="M168 231H208.5V225H168V231ZM208.5 255H168V261H208.5V255Z" fill="#B42640" mask="url(#path-32-inside-4_349_221)"/>
<path d="M114 247.5H132V250.5H114V247.5Z" fill="#9E9E9E"/>
<path d="M145.5 246H162V249H145.5V246Z" fill="#9E9E9E"/>
<path d="M117 237H165V240H117V237Z" fill="#9E9E9E"/>
<path d="M174 237H205.5V240H174V237Z" fill="#D7D7D7"/>
<path d="M189 246H205.5V249H189V246Z" fill="#D7D7D7"/>
<path d="M174 246H190.5V249H174V246Z" fill="#D7D7D7"/>
<mask id="path-40-inside-5_349_221" fill="white">
<path d="M105 213C105 204.716 111.716 198 120 198H163.5V228H120C111.716 228 105 221.284 105 213V213Z"/>
</mask>
<path d="M105 213C105 204.716 111.716 198 120 198H163.5V228H120C111.716 228 105 221.284 105 213V213Z" fill="#CDCDCD"/>
<path d="M102 213C102 203.059 110.059 195 120 195H163.5V201H120C113.373 201 108 206.373 108 213H102ZM163.5 231H120C110.059 231 102 222.941 102 213H108C108 219.627 113.373 225 120 225H163.5V231ZM120 231C110.059 231 102 222.941 102 213C102 203.059 110.059 195 120 195V201C113.373 201 108 206.373 108 213C108 219.627 113.373 225 120 225V231ZM163.5 198V228V198Z" fill="#00145D" mask="url(#path-40-inside-5_349_221)"/>
<mask id="path-42-inside-6_349_221" fill="white">
<path d="M163.5 198H190.5V228H163.5V198Z"/>
</mask>
<path d="M163.5 198H190.5V228H163.5V198Z" fill="#F7F7F7"/>
<path d="M163.5 201H190.5V195H163.5V201ZM190.5 225H163.5V231H190.5V225Z" fill="#526195" mask="url(#path-42-inside-6_349_221)"/>
<path d="M123 207H139.5V210H123V207Z" fill="#9E9E9E"/>
<path d="M145.5 208.5H157.5V211.5H145.5V208.5Z" fill="#9E9E9E"/>
<path d="M123 216H154.5V219H123V216Z" fill="#9E9E9E"/>
<path d="M166.5 207H187.5V210H166.5V207Z" fill="#D7D7D7"/>
<path d="M177 216H186V219H177V216Z" fill="#D7D7D7"/>
<path d="M168 214.5H175.5V217.5H168V214.5Z" fill="#D7D7D7"/>
<path d="M152.266 109.563C152.699 107.941 154.168 106.812 155.848 106.812V106.812C158.23 106.812 159.994 109.025 159.462 111.346L152.627 141.225C151.887 144.457 151.963 147.822 152.847 151.018L158.98 173.185C159.744 175.947 157.666 178.678 154.8 178.678V178.678C152.85 178.678 151.14 177.377 150.62 175.498L143.949 151.388C143 147.958 142.984 144.336 143.902 140.897L152.266 109.563Z" fill="#D9D9D9"/>
<path d="M150.13 107.94C150.464 106.515 151.941 105.678 153.335 106.122V106.122C154.564 106.513 155.296 107.772 155.029 109.034L148.14 141.536C147.553 144.304 147.56 147.165 148.161 149.93L153.119 172.747C153.479 174.406 152.546 176.073 150.943 176.632V176.632C149 177.311 146.91 176.099 146.533 174.076L142.021 149.875C141.513 147.145 141.578 144.339 142.213 141.636L150.13 107.94Z" fill="#9B9B9B"/>
<path fill-rule="evenodd" clip-rule="evenodd" d="M183.866 196.952C183.866 196.928 183.866 196.903 183.866 196.879C183.866 196.855 183.866 196.831 183.866 196.807V196.952ZM183.778 194.638C182.642 180.212 170.639 168.861 156 168.861C141.361 168.861 129.358 180.212 128.222 194.638H183.778Z" fill="#9B9B9B"/>
<path d="M183.845 196.879C168.75 196.879 173.696 196.879 162 196.879C150.304 196.879 143.223 199.104 143.223 196.879C143.223 183.431 145.445 172.223 157.667 168.861C169.889 168.301 184.889 181.749 183.845 196.879Z" fill="#D9D9D9"/>
<mask id="path-54-outside-7_349_221" maskUnits="userSpaceOnUse" x="143.778" y="193.638" width="43" height="5" fill="black">
<rect fill="white" x="143.778" y="193.638" width="43" height="5"/>
<path d="M143.778 194.638H184.319C185.248 194.638 186 195.39 186 196.319V196.319C186 197.247 185.248 198 184.319 198H143.778V194.638Z"/>
</mask>
<path d="M143.778 194.638H184.319C185.248 194.638 186 195.39 186 196.319V196.319C186 197.247 185.248 198 184.319 198H143.778V194.638Z" fill="#D9D9D9"/>
<path d="M143.778 194.138H184.569C185.636 194.138 186.5 195.002 186.5 196.069L185.5 196.319C185.5 195.667 184.972 195.138 184.319 195.138H143.778V194.138ZM186 198H143.778H186ZM143.778 198V194.638V198ZM184.569 194.138C185.636 194.138 186.5 195.002 186.5 196.069V196.069C186.5 197.135 185.636 198 184.569 198H184.319C184.972 198 185.5 197.247 185.5 196.319C185.5 195.667 184.972 195.138 184.319 195.138L184.569 194.138Z" fill="#7F7D7D" mask="url(#path-54-outside-7_349_221)"/>
<mask id="path-56-outside-8_349_221" maskUnits="userSpaceOnUse" x="125" y="193.638" width="19" height="5" fill="black">
<rect fill="white" x="125" y="193.638" width="19" height="5"/>
<path d="M126 196.319C126 195.39 126.753 194.638 127.681 194.638H143.778V198H127.681C126.753 198 126 197.247 126 196.319V196.319Z"/>
</mask>
<path d="M126 196.319C126 195.39 126.753 194.638 127.681 194.638H143.778V198H127.681C126.753 198 126 197.247 126 196.319V196.319Z" fill="#9B9B9B"/>
<path d="M125.5 196.069C125.5 195.002 126.365 194.138 127.431 194.138H143.778V195.138H127.681C127.029 195.138 126.5 195.667 126.5 196.319L125.5 196.069ZM143.778 198H126H143.778ZM127.431 198C126.365 198 125.5 197.135 125.5 196.069V196.069C125.5 195.002 126.365 194.138 127.431 194.138L127.681 195.138C127.029 195.138 126.5 195.667 126.5 196.319C126.5 197.247 127.029 198 127.681 198H127.431ZM143.778 194.638V198V194.638Z" fill="#626262" mask="url(#path-56-outside-8_349_221)"/>
<path d="M162.667 178.814H167.111V181.529C167.111 182.756 166.116 183.751 164.889 183.751V183.751C163.661 183.751 162.667 182.756 162.667 181.529V178.814Z" fill="url(#paint0_linear_349_221)"/>
<ellipse cx="164.889" cy="178.814" rx="2.22222" ry="0.98731" fill="url(#paint1_linear_349_221)"/>
<path d="M188.391 115.871C180.891 131.757 176.391 134.026 171.141 138.565C171.141 131.757 164.794 117.051 169.81 105.543C174.827 94.0346 190.641 87.8803 196.641 87.1238C196.641 91.6627 193.75 104.52 188.391 115.871Z" fill="#9B9B9B"/>
<ellipse cx="177.141" cy="109.819" rx="15" ry="15.1299" fill="#FFEFB5"/>
<path d="M138.6 88.4756C142.245 80.9719 151.262 77.8851 158.741 81.581L166.211 85.2724C173.689 88.9684 176.797 98.0475 173.152 105.551V105.551C169.508 113.055 160.49 116.142 153.011 112.446L145.542 108.754C138.063 105.059 134.955 95.9794 138.6 88.4756V88.4756Z" fill="#D9D9D9"/>
<path d="M155.751 86.0584L196.641 87.1239L185.191 100.384C179.427 107.059 175.532 115.157 173.9 123.855L171.141 138.565L145.798 106.309L155.751 86.0584Z" fill="#D9D9D9"/>
<rect x="444.75" y="313.5" width="21.24" height="142.5" fill="#C98159"/>
<rect x="66.4125" y="313.5" width="19.9125" height="142.5" fill="#C98159"/>
<rect x="556.26" y="313.5" width="21.24" height="142.5" fill="#C98159"/>
<rect x="179.25" y="313.5" width="19.9125" height="142.5" fill="#B97752"/>
<rect x="423.51" y="313.5" width="21.24" height="142.5" fill="#A16747"/>
<rect x="46.5" y="313.5" width="19.9125" height="142.5" fill="#A16747"/>
<rect x="535.02" y="313.5" width="21.24" height="142.5" fill="#A16747"/>
<rect x="159.337" y="313.5" width="19.9125" height="142.5" fill="#945F41"/>
<rect x="46.5" y="300" width="398.25" height="30" fill="#A16747"/>
<rect x="444.75" y="300" width="132.75" height="30" fill="#C98159"/>
<path d="M327.811 256.32H327.311V256.82V298.869V299.369H327.811H376.5H377V298.869V284.484V284.204L376.762 284.058L362.493 275.277L352.597 256.586L352.457 256.32H352.156H327.811Z" fill="#EEEEEE" stroke="#BDBBBB"/>
<rect x="241" y="256.32" width="89.5246" height="43.0492" rx="2.5" fill="#B1B1B1" stroke="#727272"/>
<mask id="path-76-inside-9_349_221" fill="white">
<path d="M245.926 278.951H263.631V290.016H245.926V278.951Z"/>
</mask>
<path d="M245.926 278.951H263.631V290.016H245.926V278.951Z" fill="#949494"/>
<path d="M245.926 278.951V278.451H245.426V278.951H245.926ZM245.926 279.451H263.631V278.451H245.926V279.451ZM246.426 290.016V278.951H245.426V290.016H246.426Z" fill="#727272" mask="url(#path-76-inside-9_349_221)"/>
<rect x="310.107" y="263.459" width="2.21311" height="13.2787" rx="1.10656" fill="#818181"/>
<rect x="314.533" y="263.459" width="2.21311" height="13.2787" rx="1.10656" fill="#818181"/>
<rect x="318.959" y="263.459" width="2.21311" height="13.2787" rx="1.10656" fill="#818181"/>
<rect x="323.385" y="263.459" width="2.21311" height="13.2787" rx="1.10656" fill="#818181"/>
<rect x="329.525" y="187.713" width="25.3443" height="67.3934" fill="#EEEEEE" stroke="#BDBBBB"/>
<rect x="241" y="187.713" width="89.5246" height="67.3934" rx="2.5" fill="#B1B1B1" stroke="#727272"/>
<mask id="path-84-inside-10_349_221" fill="white">
<path d="M303.467 208.131H321.172V232.475H303.467V208.131Z"/>
</mask>
<path d="M303.467 208.131H321.172V232.475H303.467V208.131Z" fill="#B7B7B7"/>
<path d="M303.467 208.131V207.131H302.467V208.131H303.467ZM321.172 208.131H322.172V207.131H321.172V208.131ZM321.172 232.475V233.475H322.172V232.475H321.172ZM303.467 232.475H302.467V233.475H303.467V232.475ZM303.467 209.131H321.172V207.131H303.467V209.131ZM320.172 208.131V232.475H322.172V208.131H320.172ZM321.172 231.475H303.467V233.475H321.172V231.475ZM304.467 232.475V208.131H302.467V232.475H304.467Z" fill="#727272" mask="url(#path-84-inside-10_349_221)"/>
<rect x="248.14" y="199.279" width="2.21311" height="19.918" rx="1.10656" fill="#818181"/>
<rect x="252.566" y="199.279" width="2.21311" height="19.918" rx="1.10656" fill="#818181"/>
<rect x="256.992" y="199.279" width="2.21311" height="19.918" rx="1.10656" fill="#818181"/>
<rect x="261.418" y="199.279" width="2.21311" height="19.918" rx="1.10656" fill="#818181"/>
<mask id="path-90-inside-11_349_221" fill="white">
<path d="M252.566 241.328H314.533V252.393H252.566V241.328Z"/>
</mask>
<path d="M252.566 241.328H314.533V252.393H252.566V241.328Z" fill="#949494"/>
<path d="M252.566 241.328V240.828H252.066V241.328H252.566ZM252.566 241.828H314.533V240.828H252.566V241.828ZM253.066 252.393V241.328H252.066V252.393H253.066Z" fill="#727272" mask="url(#path-90-inside-11_349_221)"/>
<rect x="305.68" y="212.557" width="8.85246" height="15.4918" fill="#B7B7B7"/>
<path d="M305.68 210.344H318.959L316.746 212.557H306.787L305.68 210.344Z" fill="#A8A8A8"/>
<path d="M305.68 230.262H318.959L316.746 228.049H306.787L305.68 230.262Z" fill="#A8A8A8"/>
<path d="M305.68 210.344L306.787 212.557V228.049L305.68 230.262V210.344Z" fill="#5C5C5C"/>
<path d="M318.959 210.344L314.533 212.557V228.049L318.959 230.262V210.344Z" fill="#D9D9D9"/>
<mask id="path-97-inside-12_349_221" fill="white">
<path d="M352.156 186H356.582V256.82H352.156V186Z"/>
</mask>
<path d="M352.156 186H356.582V256.82H352.156V186Z" fill="#C8C8B4"/>
<path d="M356.582 186H357.582V185H356.582V186ZM356.582 256.82V257.82H357.582V256.82H356.582ZM352.156 187H356.582V185H352.156V187ZM355.582 186V256.82H357.582V186H355.582ZM356.582 255.82H352.156V257.82H356.582V255.82Z" fill="#B2B29B" mask="url(#path-97-inside-12_349_221)"/>
<path d="M420.212 226.661C420.103 218.48 427.576 212.287 435.595 213.914V213.914C441.576 215.128 445.875 220.387 445.875 226.49V230.625L446.625 243.75V261L446.365 266.976C446.091 273.28 440.901 278.25 434.591 278.25V278.25C429.293 278.25 424.646 274.715 423.232 269.61L420.207 258.686C419.327 255.506 419.043 252.191 419.372 248.908L420.375 238.875L420.212 226.661Z" fill="#1C7B0D"/>
<path d="M425.291 221.118C425.246 215.653 430.574 211.754 435.769 213.45V213.45C439.058 214.524 441.284 217.591 441.284 221.051V229.875L441.75 243V260.25L441.466 270.755C441.365 274.509 438.292 277.5 434.537 277.5V277.5C431.162 277.5 428.278 275.07 427.705 271.744L425.011 256.093C424.671 254.121 424.563 252.116 424.687 250.119L425.432 238.125L425.291 221.118Z" fill="#2C921B"/>
<path d="M432.375 217.5C431.904 214.518 435.001 212.251 437.701 213.601L438 213.75V213.75C443.916 216.936 447.369 223.337 446.783 230.031L446.533 232.875L447 246L446.533 263.625V274.206C446.533 277.682 443.715 280.5 440.239 280.5V280.5C436.763 280.5 433.945 277.682 433.945 274.206V258.104C433.945 257.036 433.869 255.97 433.717 254.913L432.151 244.033C431.801 241.604 431.751 239.14 432.002 236.698L432.828 228.637C433.025 226.717 433.037 224.782 432.862 222.86L432.375 217.5V217.5Z" fill="#35BD1E"/>
<path d="M415.5 263.25H453V300.75H415.5V263.25Z" fill="url(#paint2_linear_349_221)"/>
<path d="M444.374 229.5L449.624 228.75L444.374 230.25V229.5Z" fill="#D52727"/>
<path d="M444.374 230.25L440.249 230.625L444.374 229.5V230.25Z" fill="black" fill-opacity="0.5"/>
<path d="M436.874 233.25L442.499 231.75L436.874 234V233.25Z" fill="#D52727"/>
<path d="M436.874 234L431.999 234.375L436.874 233.25V234Z" fill="black" fill-opacity="0.5"/>
<path d="M441 222.75L449.25 222L441 223.5V222.75Z" fill="#D52727"/>
<path d="M441 223.5L437.25 224.25L441 222.75V223.5Z" fill="black" fill-opacity="0.5"/>
<path d="M429.75 218.625L426 219.375L429.75 217.875V218.625Z" fill="black" fill-opacity="0.5"/>
<path d="M429.75 218.625L426 219.375L429.75 217.875V218.625Z" fill="black" fill-opacity="0.2"/>
<path d="M429.75 217.875L426 211.5L429.75 218.625V217.875Z" fill="#D52727"/>
<path d="M429.75 217.875L426 211.5L429.75 218.625V217.875Z" fill="black" fill-opacity="0.2"/>
<path d="M431.999 226.125L427.124 226.875L431.999 225.375V226.125Z" fill="black" fill-opacity="0.5"/>
<path d="M431.999 226.125L427.124 226.875L431.999 225.375V226.125Z" fill="black" fill-opacity="0.2"/>
<path d="M432 225.375L429 219L432 226.125V225.375Z" fill="#D52727"/>
<path d="M432 225.375L429 219L432 226.125V225.375Z" fill="black" fill-opacity="0.2"/>
<path d="M429 230.625L425.625 232.125L429 229.875V230.625Z" fill="black" fill-opacity="0.5"/>
<path d="M429 230.625L425.625 232.125L429 229.875V230.625Z" fill="black" fill-opacity="0.2"/>
<path d="M429 229.875L424.125 226.125L429 230.625V229.875Z" fill="#D52727"/>
<path d="M429 229.875L424.125 226.125L429 230.625V229.875Z" fill="black" fill-opacity="0.2"/>
<path d="M423.375 221.625L421.5 221.25L423.375 220.875V221.625Z" fill="black" fill-opacity="0.5"/>
<path d="M423.375 221.625L421.5 221.25L423.375 220.875V221.625Z" fill="black" fill-opacity="0.4"/>
<path d="M423.374 220.875L420.749 219.75L423.374 221.625V220.875Z" fill="#D52727"/>
<path d="M423.374 220.875L420.749 219.75L423.374 221.625V220.875Z" fill="black" fill-opacity="0.4"/>
<path d="M421.875 226.875H420.375L421.875 226.125V226.875Z" fill="black" fill-opacity="0.5"/>
<path d="M421.875 226.875H420.375L421.875 226.125V226.875Z" fill="black" fill-opacity="0.4"/>
<path d="M421.875 226.125L420 225.75L421.875 226.875V226.125Z" fill="#D52727"/>
<path d="M421.875 226.125L420 225.75L421.875 226.875V226.125Z" fill="black" fill-opacity="0.4"/>
<path d="M423.376 232.875L421.876 232.5L423.376 232.125V232.875Z" fill="black" fill-opacity="0.5"/>
<path d="M423.376 232.875L421.876 232.5L423.376 232.125V232.875Z" fill="black" fill-opacity="0.4"/>
<path d="M423.376 232.125L421.501 231.375L423.376 232.875V232.125Z" fill="#D52727"/>
<path d="M423.376 232.125L421.501 231.375L423.376 232.875V232.125Z" fill="black" fill-opacity="0.4"/>
<path d="M422.624 238.875H421.124L422.624 238.125V238.875Z" fill="black" fill-opacity="0.5"/>
<path d="M422.624 238.875H421.124L422.624 238.125V238.875Z" fill="black" fill-opacity="0.4"/>
<path d="M422.625 238.125H420.375L422.625 238.875V238.125Z" fill="#D52727"/>
<path d="M422.625 238.125H420.375L422.625 238.875V238.125Z" fill="black" fill-opacity="0.4"/>
<path d="M423.375 244.5H421.5L423.375 243.75V244.5Z" fill="black" fill-opacity="0.5"/>
<path d="M423.375 244.5H421.5L423.375 243.75V244.5Z" fill="black" fill-opacity="0.4"/>
<path d="M423.375 243.75H420.375L423.375 244.5V243.75Z" fill="#D52727"/>
<path d="M423.375 243.75H420.375L423.375 244.5V243.75Z" fill="black" fill-opacity="0.4"/>
<path d="M421.874 250.875L419.999 250.5L421.874 250.125V250.875Z" fill="black" fill-opacity="0.5"/>
<path d="M421.874 250.875L419.999 250.5L421.874 250.125V250.875Z" fill="black" fill-opacity="0.4"/>
<path d="M421.875 250.125L418.5 249.375L421.875 250.875V250.125Z" fill="#D52727"/>
<path d="M421.875 250.125L418.5 249.375L421.875 250.875V250.125Z" fill="black" fill-opacity="0.4"/>
<path d="M424.125 256.875H421.875L424.125 256.125V256.875Z" fill="black" fill-opacity="0.5"/>
<path d="M424.125 256.875H421.875L424.125 256.125V256.875Z" fill="black" fill-opacity="0.4"/>
<path d="M424.125 256.125L420.375 255.75L424.125 256.875V256.125Z" fill="#D52727"/>
<path d="M424.125 256.125L420.375 255.75L424.125 256.875V256.125Z" fill="black" fill-opacity="0.4"/>
<path d="M431.25 237.375L426.75 238.125L431.25 236.625V237.375Z" fill="black" fill-opacity="0.5"/>
<path d="M431.25 237.375L426.75 238.125L431.25 236.625V237.375Z" fill="black" fill-opacity="0.2"/>
<path d="M431.25 236.625L428.25 230.625L431.25 237.375V236.625Z" fill="#D52727"/>
<path d="M431.25 236.625L428.25 230.625L431.25 237.375V236.625Z" fill="black" fill-opacity="0.2"/>
<path d="M428.25 241.875L424.125 242.25L428.25 241.125V241.875Z" fill="black" fill-opacity="0.5"/>
<path d="M428.25 241.875L424.125 242.25L428.25 241.125V241.875Z" fill="black" fill-opacity="0.2"/>
<path d="M428.25 241.125L423.75 237.375L428.25 241.875V241.125Z" fill="#D52727"/>
<path d="M428.25 241.125L423.75 237.375L428.25 241.875V241.125Z" fill="black" fill-opacity="0.2"/>
<path d="M432 247.875L426.75 248.625L432 247.125V247.875Z" fill="black" fill-opacity="0.5"/>
<path d="M432 247.875L426.75 248.625L432 247.125V247.875Z" fill="black" fill-opacity="0.2"/>
<path d="M432 247.125L430.125 242.625L432 247.875V247.125Z" fill="#D52727"/>
<path d="M432 247.125L430.125 242.625L432 247.875V247.125Z" fill="black" fill-opacity="0.2"/>
<path d="M429 254.625L425.625 255L429 253.875V254.625Z" fill="black" fill-opacity="0.5"/>
<path d="M429 254.625L425.625 255L429 253.875V254.625Z" fill="black" fill-opacity="0.2"/>
<path d="M429 253.875L424.875 249.375L429 254.625V253.875Z" fill="#D52727"/>
<path d="M429 253.875L424.875 249.375L429 254.625V253.875Z" fill="black" fill-opacity="0.2"/>
<path d="M432.75 261.375L426.75 262.125L432.75 260.625V261.375Z" fill="black" fill-opacity="0.5"/>
<path d="M432.75 261.375L426.75 262.125L432.75 260.625V261.375Z" fill="black" fill-opacity="0.2"/>
<path d="M432.75 260.625L431.25 257.625L432.75 261.375V260.625Z" fill="#D52727"/>
<path d="M432.75 260.625L431.25 257.625L432.75 261.375V260.625Z" fill="black" fill-opacity="0.2"/>
<path d="M438 227.25H440.625L438 228V227.25Z" fill="#D52727"/>
<path d="M438 228H433.5L438 227.25V228Z" fill="black" fill-opacity="0.5"/>
<path d="M437.25 240.375L441.75 240L437.25 241.125V240.375Z" fill="#D52727"/>
<path d="M437.25 241.125L433.5 241.875L437.25 240.375V241.125Z" fill="black" fill-opacity="0.5"/>
<path d="M438 247.5H444L438 248.25V247.5Z" fill="#D52727"/>
<path d="M438 248.25L433.5 249L438 247.5V248.25Z" fill="black" fill-opacity="0.5"/>
<path d="M437.251 216.75L442.126 214.125L437.251 217.5V216.75Z" fill="#D52727"/>
<path d="M437.251 217.5L433.876 218.25L437.251 216.75V217.5Z" fill="black" fill-opacity="0.5"/>
<path d="M442.5 236.25L448.125 237.375L442.5 237V236.25Z" fill="#D52727"/>
<path d="M442.5 237L438.75 237.75L442.5 236.25V237Z" fill="black" fill-opacity="0.5"/>
<path d="M444.001 251.25H449.251L444.001 252V251.25Z" fill="#D52727"/>
<path d="M444.001 252L440.251 252.75L444.001 251.25V252Z" fill="black" fill-opacity="0.5"/>
<path d="M439.5 253.5H441L439.5 254.25V253.5Z" fill="#D52727"/>
<path d="M439.5 254.25L434.25 255L439.5 253.5V254.25Z" fill="black" fill-opacity="0.5"/>
<path d="M444.751 243.75L448.126 243L444.751 244.5V243.75Z" fill="#D52727"/>
<path d="M444.751 244.5L439.501 245.25L444.751 243.75V244.5Z" fill="black" fill-opacity="0.5"/>
<path d="M444 258.75H447.375L444 259.5V258.75Z" fill="#D52727"/>
<path d="M444 259.5H439.875L444 258.75V259.5Z" fill="black" fill-opacity="0.5"/>
<ellipse cx="606.333" cy="136.5" rx="41.6667" ry="45" fill="#E1E1E1"/>
<ellipse cx="597" cy="136.5" rx="43.5" ry="45" fill="black" fill-opacity="0.2"/>
<ellipse cx="601.5" cy="136.5" rx="42" ry="45" fill="#4A4A4A"/>
<ellipse cx="600.75" cy="136.5" rx="38.25" ry="40.5" fill="#D0D0D0"/>
<ellipse cx="602.333" cy="136.5" rx="36.6667" ry="40.5" fill="#FAFAFA"/>
<ellipse cx="601.083" cy="138.3" rx="2.91667" ry="3.6" fill="#444444"/>
<path d="M600.666 112.967L602.333 112.2V132.517L599.833 132.9L600.666 112.967Z" fill="#B95656"/>
<path d="M606.499 137.4L616.499 138.3L616.083 140.1H605.249L606.499 137.4Z" fill="#B95656"/>
<rect x="599.833" y="99.2999" width="2.5" height="9" fill="#444444"/>
<rect x="599.833" y="164.7" width="2.5" height="9" fill="#444444"/>
<rect x="628.999" y="137.4" width="8.33333" height="2.7" fill="#444444"/>
<rect width="6.89203" height="2.61922" transform="matrix(0.740995 0.67151 -0.61353 0.789671 626.439 152.7)" fill="#C4C4C4"/>
<rect width="6.89203" height="2.61922" transform="matrix(0.740995 -0.67151 0.61353 0.789671 628.166 123.128)" fill="#C4C4C4"/>
<rect width="6" height="2.61922" transform="matrix(0.740995 -0.67151 0.61353 0.789671 574.665 155.828)" fill="#C4C4C4"/>
<path d="M574.435 120L578.998 124.628L577.562 126.696L572.998 122.068L574.435 120Z" fill="#C4C4C4"/>
<rect width="7.07044" height="2.55147" transform="matrix(0.471446 0.881895 -0.848555 0.529107 616.772 163.055)" fill="#C4C4C4"/>
<rect width="7.07044" height="2.55147" transform="matrix(0.471446 -0.881895 0.848555 0.529107 614.833 109.435)" fill="#C4C4C4"/>
<rect width="6" height="2.55147" transform="matrix(0.471446 -0.881895 0.848555 0.529107 585.499 168.235)" fill="#C4C4C4"/>
<rect width="6" height="2.55147" transform="matrix(0.471446 0.881895 -0.848555 0.529107 587.664 104.7)" fill="#C4C4C4"/>
<rect x="568.166" y="137.4" width="7.5" height="2.7" fill="#444444"/>
<path d="M332.953 40.5C333.7 48.75 325.476 67.5 318 67.5C310.524 67.5 302.3 48.75 303.047 40.5C303.047 32.2157 309.742 25.5 318 25.5C326.258 25.5 332.953 32.2157 332.953 40.5Z" fill="#FFEFB5"/>
<path d="M313.5 75H322.5V75C322.5 76.6569 321.157 78 319.5 78H316.5C314.843 78 313.5 76.6569 313.5 75V75Z" fill="#989898"/>
<path d="M309.047 60H327.047V72C327.047 73.6569 325.704 75 324.047 75H312.047C310.39 75 309.047 73.6569 309.047 72V60Z" fill="#E7E7E7"/>
<rect x="309.047" y="62.25" width="18" height="1.5" fill="#989898"/>
<rect x="309.047" y="66" width="18" height="1.5" fill="#989898"/>
<rect x="309.047" y="69.75" width="18" height="1.5" fill="#989898"/>
<rect x="315" width="6" height="18" rx="3" fill="#FFEFB5"/>
<rect x="339" y="42" width="18" height="6" rx="3" fill="#FFEFB5"/>
<rect x="279" y="42" width="18" height="6" rx="3" fill="#FFEFB5"/>
<rect x="285.401" y="24.4285" width="13.5" height="6" rx="3" transform="rotate(25 285.401 24.4285)" fill="#FFEFB5"/>
<rect x="338.365" y="30.1337" width="13.5" height="6" rx="3" transform="rotate(-25 338.365 30.1337)" fill="#FFEFB5"/>
<rect x="329.232" y="18.8701" width="13.5" height="6" rx="3" transform="rotate(-50 329.232 18.8701)" fill="#FFEFB5"/>
<rect x="298.08" y="8.52856" width="13.5" height="6" rx="3" transform="rotate(50 298.08 8.52856)" fill="#FFEFB5"/>
<defs>
<linearGradient id="paint0_linear_349_221" x1="167.111" y1="181.282" x2="161.555" y2="181.282" gradientUnits="userSpaceOnUse">
<stop stop-color="#4C4C4C"/>
<stop offset="1"/>
</linearGradient>
<linearGradient id="paint1_linear_349_221" x1="167.111" y1="178.814" x2="161.555" y2="178.814" gradientUnits="userSpaceOnUse">
<stop stop-color="#858585"/>
<stop offset="1" stop-color="#393939"/>
</linearGradient>
<linearGradient id="paint2_linear_349_221" x1="453" y1="282" x2="405.938" y2="282" gradientUnits="userSpaceOnUse">
<stop stop-color="#DF7B7B"/>
<stop offset="1" stop-color="#843434"/>
</linearGradient>
</defs>
</svg>
