<svg width="60" height="60" viewBox="0 0 60 60" fill="none" xmlns="http://www.w3.org/2000/svg">
<mask id="path-1-inside-1_389_146" fill="white">
<path d="M0 10C0 4.47715 4.47715 0 10 0H50C55.5228 0 60 4.47715 60 10V50C60 55.5228 55.5228 60 50 60H10C4.47715 60 0 55.5228 0 50V10Z"/>
</mask>
<path d="M-5 10C-5 1.71573 1.71573 -5 10 -5H50C58.2843 -5 65 1.71573 65 10H55C55 7.23858 52.7614 5 50 5H10C7.23858 5 5 7.23858 5 10H-5ZM65 50C65 58.2843 58.2843 65 50 65H10C1.71573 65 -5 58.2843 -5 50H5C5 52.7614 7.23858 55 10 55H50C52.7614 55 55 52.7614 55 50H65ZM10 65C1.71573 65 -5 58.2843 -5 50V10C-5 1.71573 1.71573 -5 10 -5V5C7.23858 5 5 7.23858 5 10V50C5 52.7614 7.23858 55 10 55V65ZM50 -5C58.2843 -5 65 1.71573 65 10V50C65 58.2843 58.2843 65 50 65V55C52.7614 55 55 52.7614 55 50V10C55 7.23858 52.7614 5 50 5V-5Z" fill="#F4F4F4" mask="url(#path-1-inside-1_389_146)"/>
<rect x="11.5" y="13.5" width="37.5" height="4.5" rx="2.25" fill="#F4F4F4"/>
<rect x="11.5" y="27.75" width="37.5" height="4.5" rx="2.25" fill="#F4F4F4"/>
<rect x="11.5" y="42" width="37.5" height="4.5" rx="2.25" fill="#F4F4F4"/>
</svg>
