<svg width="51" height="51" viewBox="0 0 51 51" fill="none" xmlns="http://www.w3.org/2000/svg">
<path fill-rule="evenodd" clip-rule="evenodd" d="M11.3769 4.4478C13.0037 2.81964 15.6425 2.8189 17.2703 4.44616L24.9635 12.1372C26.5906 13.7638 26.5913 16.4014 24.9651 18.0289L22.2383 20.758L31.1014 29.6197L33.8265 26.8924C35.4533 25.2643 38.0921 25.2635 39.7198 26.8908L46.5858 33.7548C48.2129 35.3814 48.2136 38.019 46.5874 39.6465L42.0455 44.1922C39.3824 46.8575 35.2828 47.4523 31.972 45.6537C20.7274 39.5451 11.4905 30.3094 5.379 19.0666C3.58029 15.7576 4.17199 11.6587 6.83439 8.99409L11.3769 4.4478ZM22.0176 15.0839L14.3244 7.39286L9.78189 11.9391C8.42429 13.2979 8.1222 15.3886 9.03977 17.0766C14.7671 27.6128 23.4235 36.268 33.961 41.9925C35.6493 42.9097 37.7399 42.6063 39.098 41.2471L43.6399 36.7015L36.774 29.8375L31.1029 35.5132L16.3467 20.7594L22.0176 15.0839Z" fill="#262626"/>
</svg>
