<svg width="80" height="74" viewBox="0 0 80 74" fill="none" xmlns="http://www.w3.org/2000/svg">
<path d="M64.1861 73.9721C55.4791 73.9721 48.3721 66.8652 48.3721 58.1582V56.2977C48.3721 54.7721 49.6372 53.507 51.1628 53.507C52.6884 53.507 53.9535 54.7721 53.9535 56.2977V58.1582C53.9535 63.814 58.5302 68.3908 64.1861 68.3908C69.8419 68.3908 74.4186 63.814 74.4186 58.1582C74.4186 52.5024 69.8419 47.9256 64.1861 47.9256H2.7907C1.26512 47.9256 0 46.6605 0 45.1349C0 43.6094 1.26512 42.3442 2.7907 42.3442H64.1861C72.893 42.3442 80 49.4512 80 58.1582C80 66.8652 72.893 73.9721 64.1861 73.9721Z" fill="black"/>
<path d="M64.1861 36.7627H2.7907C1.26512 36.7627 0 35.4976 0 33.972C0 32.4464 1.26512 31.1813 2.7907 31.1813H64.1861C69.8419 31.1813 74.4186 26.6045 74.4186 20.9487C74.4186 15.2929 69.8419 10.7162 64.1861 10.7162C58.5302 10.7162 53.9535 15.2929 53.9535 20.9487V22.8092C53.9535 24.3348 52.6884 25.5999 51.1628 25.5999C49.6372 25.5999 48.3721 24.3348 48.3721 22.8092V20.9487C48.3721 12.2417 55.4791 5.13477 64.1861 5.13477C72.893 5.13477 80 12.2417 80 20.9487C80 29.6557 72.893 36.7627 64.1861 36.7627Z" fill="black"/>
<path d="M29.9907 25.6H2.7907C1.26512 25.6 0 24.3349 0 22.8093C0 21.2837 1.26512 20.0186 2.7907 20.0186H29.9907C33.9721 20.0186 37.2093 16.7814 37.2093 12.8C37.2093 8.81861 33.9721 5.5814 29.9907 5.5814C26.0093 5.5814 22.7721 8.81861 22.7721 12.8V14.214C22.7721 15.7395 21.507 17.0047 19.9814 17.0047C18.4558 17.0047 17.1907 15.7395 17.1907 14.214V12.8C17.1907 5.73023 22.9209 0 29.9907 0C37.0605 0 42.7907 5.73023 42.7907 12.8C42.7907 19.8698 37.0605 25.6 29.9907 25.6Z" fill="black"/>
</svg>
